<?xml version="1.0" encoding="UTF-8" standalone="no"?>
<!-- Created with Inkscape (http://www.inkscape.org/) -->

<svg
   width="210mm"
   height="297mm"
   viewBox="0 0 210 297"
   version="1.1"
   id="svg1"
   inkscape:version="1.3.2 (091e20e, 2023-11-25)"
   sodipodi:docname="catPaw.svg"
   xmlns:inkscape="http://www.inkscape.org/namespaces/inkscape"
   xmlns:sodipodi="http://sodipodi.sourceforge.net/DTD/sodipodi-0.dtd"
   xmlns="http://www.w3.org/2000/svg"
   xmlns:svg="http://www.w3.org/2000/svg">
  <sodipodi:namedview
     id="namedview1"
     pagecolor="#ffffff"
     bordercolor="#000000"
     borderopacity="0.25"
     inkscape:showpageshadow="2"
     inkscape:pageopacity="0.0"
     inkscape:pagecheckerboard="0"
     inkscape:deskcolor="#d1d1d1"
     inkscape:document-units="mm"
     inkscape:zoom="0.92737795"
     inkscape:cx="397.35687"
     inkscape:cy="561.25984"
     inkscape:window-width="1392"
     inkscape:window-height="1212"
     inkscape:window-x="1181"
     inkscape:window-y="439"
     inkscape:window-maximized="0"
     inkscape:current-layer="layer1" />
  <defs
     id="defs1" />
  <g
     inkscape:label="Layer 1"
     inkscape:groupmode="layer"
     id="layer1">
    <path
       style="fill:#000000;stroke-width:0.264583"
       id="path1"
       d="m 124.97926,147.21208 c -0.25349,-1.61559 -0.19821,-3.25663 -0.2961,-4.88309 -0.0921,-1.52987 -0.2401,-2.63048 -0.41561,-4.17091 -0.5552,-4.22321 -1.5059,-8.37171 -2.75979,-12.43843 -1.29448,-3.8406 -3.25877,-7.40992 -5.10852,-11.00258 -1.45748,-2.88886 -3.05569,-5.70332 -4.89633,-8.3651 -1.61253,-2.09975 -3.38961,-4.06775 -5.35304,-5.84281 -1.89524,-1.580376 -3.7822,-3.170538 -5.74761,-4.663346 -2.713446,-1.913067 -5.422231,-3.832648 -8.079164,-5.823685 -1.584971,-1.196809 -3.098334,-2.482856 -4.598985,-3.782592 -0.831527,-0.763461 -1.676678,-1.50926 -2.569249,-2.200778 -0.51166,-0.42554 -1.039831,-0.83865 -1.491348,-1.329394 -0.459409,-0.507738 -0.863777,-1.055473 -1.201256,-1.650896 -0.179282,-0.439471 -0.450271,-0.825617 -0.737328,-1.199648 -0.301143,-0.372499 -0.645287,-0.707244 -0.984356,-1.044604 -0.562874,-0.514969 -1.124587,-1.031351 -1.66358,-1.571582 -1.011532,-0.997525 -1.965275,-2.042925 -2.8609,-3.145356 -1.351021,-1.772119 -2.330554,-3.761457 -3.05289,-5.859767 -0.276706,-1.005372 -0.455861,-2.043674 -0.339212,-3.087918 0.04357,-0.39003 0.162259,-0.890249 0.245386,-1.27332 0.273616,-1.327955 0.919085,-2.486414 1.693055,-3.580588 0.654095,-0.820423 1.31513,-1.662848 2.141339,-2.321499 0.365641,-0.291489 1.103548,-0.77116 1.480733,-1.022855 2.010349,-1.268701 4.296703,-1.929384 6.607696,-2.386394 1.525249,-0.276378 3.062293,-0.398454 4.60657,-0.285348 0.978895,0.130448 1.888017,0.49294 2.75499,0.949595 1.290259,0.696862 1.415611,0.769366 -2.482903,-1.440317 -0.1388,-0.07867 0.273151,0.165073 0.406834,0.252158 0.397021,0.25862 0.740823,0.550204 1.085874,0.873263 0.650129,0.625012 1.228135,1.314529 1.728388,2.063808 0.421741,0.67047 0.871858,1.320789 1.264272,2.009135 0.319892,0.556961 0.588187,1.141383 0.874408,1.71596 0.400016,0.699304 0.866121,1.356725 1.311119,2.027309 0.36073,0.612852 0.73773,1.207333 1.229698,1.723218 1.437069,1.223706 3.356799,2.098908 4.913309,2.987244 0.5431,0.222557 1.069,0.170926 1.63136,0.0898 0.55316,-0.0271 0.99082,-0.233971 1.38844,-0.609224 0.31031,-0.387487 0.52997,-0.811689 0.65233,-1.291045 0.12734,-0.548806 0.11305,-1.111377 0.0365,-1.665274 -0.18294,-1.025446 -0.46313,-2.022464 -0.84171,-2.991839 -0.42035,-1.09105 -1.06946,-2.064637 -1.74337,-3.011943 -0.64683,-0.88705 -1.26946,-1.791629 -1.98423,-2.625942 -0.95991,-0.950537 -2.023989,-1.784495 -3.016089,-2.70115 -0.859994,-0.819002 -1.718432,-1.640853 -2.53406,-2.504326 -0.787985,-0.890111 -1.596117,-1.761911 -2.39268,-2.644227 -0.868844,-0.913083 -1.740583,-1.827445 -2.662206,-2.687913 -1.460576,-1.141846 -3.055747,-2.216351 -4.814099,-2.819873 -0.268078,-0.09201 -0.544144,-0.159266 -0.813189,-0.248418 -0.76646,-0.269192 -1.575781,-0.314949 -2.379403,-0.355981 -0.675005,-0.09948 -1.347708,-0.206803 -2.026264,-0.27882 -0.539091,-0.03745 -1.080272,-0.02932 -1.620385,-0.02942 -0.55168,-0.121333 -1.102196,-0.216109 -1.650926,-0.34844 -0.483221,-0.0585 -0.861234,-0.309687 -1.267094,-0.542444 1.070821,0.617363 2.141646,1.234726 3.212467,1.852089 -0.127196,-0.09859 -0.262705,-0.191032 -0.340365,-0.337291 -0.06867,-0.129331 -0.07801,-0.222372 -0.109585,-0.365675 -0.0518,-0.842796 -0.214019,-1.669473 -0.364612,-2.498776 -0.184081,-0.975775 -0.238609,-1.967912 -0.25686,-2.958679 0.02522,-0.941226 0.500803,-1.790562 0.949722,-2.593655 0.363289,-0.537718 0.698344,-1.130249 1.166236,-1.58927 0.221366,-0.21717 0.614923,-0.47566 0.857551,-0.646054 1.259446,-0.812541 2.600561,-1.492586 3.986869,-2.059419 0.717671,-0.345535 1.492401,-0.528214 2.236446,-0.801132 0.512702,-0.170576 1.066197,-0.111027 1.580854,-0.254973 1.526084,-0.408183 3.040192,-0.85784 4.567068,-1.264248 1.631524,-0.426239 3.336337,-0.480419 5.012608,-0.576075 1.732656,-0.09662 3.440796,0.173534 5.109906,0.610905 0.17717,0.05691 0.35683,0.106598 0.53152,0.170743 0.23789,0.08735 0.69443,0.294402 0.92058,0.411962 0.1431,0.07439 0.56109,0.318344 0.42111,0.238238 -3.10046,-1.774285 -3.87709,-2.305863 -2.5726,-1.433951 0.89775,0.632711 1.78515,1.277207 2.62867,1.980985 0.83095,0.702604 1.57621,1.495624 2.26243,2.33807 0.66482,0.879335 1.14088,1.874489 1.62469,2.858993 0.63771,1.401847 1.29546,2.794619 1.9261,4.199702 0.61743,1.300654 1.30682,2.565455 1.97394,3.840945 0.66867,1.265918 1.31185,2.543308 1.90938,3.844264 0.58971,1.21231 1.11887,2.450457 1.5898,3.713258 0.32835,0.890759 0.61114,1.794541 0.85576,2.711547 0.22207,0.908479 0.42134,1.816921 0.52216,2.747299 0.0416,0.672547 0.061,1.339712 0.1908,2.00194 0.0133,0.07066 0.0265,0.14133 0.0398,0.211995 0,0 3.55833,1.723903 3.55833,1.723903 v 0 c -0.0157,-0.0716 -0.0314,-0.143211 -0.0471,-0.214817 -0.13727,-0.660557 -0.23777,-1.312252 -0.25474,-1.990429 -0.0896,-0.947523 -0.2514,-1.8733 -0.48999,-2.795349 -0.22549,-0.939565 -0.5186,-1.857172 -0.86055,-2.760581 -0.4767,-1.279779 -1.01149,-2.534597 -1.61902,-3.758533 -0.59941,-1.296993 -1.18648,-2.598603 -1.87725,-3.851222 -0.66895,-1.273908 -1.36174,-2.535648 -1.99998,-3.825388 -0.61918,-1.409076 -1.30699,-2.786256 -1.90941,-4.202806 -0.4619,-1.008621 -0.92305,-2.016879 -1.56145,-2.930363 -0.68375,-0.858396 -1.40133,-1.687738 -2.23473,-2.406232 -0.83003,-0.715 -1.7022,-1.369986 -2.59464,-2.004875 -1.80603,-1.339055 -3.82969,-2.54989 -6.01016,-3.169243 -1.672126,-0.378442 -3.381787,-0.570604 -5.098274,-0.458474 -1.710354,0.117913 -3.472511,0.07527 -5.119545,0.600774 -1.526952,0.463551 -3.05994,0.930839 -4.639254,1.181081 -0.540853,0.07196 -1.090745,0.127464 -1.608188,0.309718 -0.730903,0.282913 -1.489781,0.495061 -2.190615,0.853654 -1.383916,0.626843 -2.712646,1.363747 -4.025207,2.127594 -0.354364,0.244808 -0.637214,0.413657 -0.939482,0.718751 -0.477533,0.481999 -0.811445,1.10299 -1.183293,1.662361 -0.477618,0.859854 -1.026438,1.760842 -1.076368,2.764909 0.04779,1.00775 0.07076,2.021189 0.243748,3.017412 0.153471,0.8154 0.342164,1.627203 0.318092,2.462135 0.02745,0.291283 0.03452,0.796012 0.325776,0.974482 1.16962,0.71669 2.357197,1.403659 3.535794,2.10549 0.408731,0.232635 0.860584,0.345634 1.319006,0.4391 0.560758,0.129368 1.132449,0.24873 1.707671,0.279162 0.535607,0.0045 1.072431,0.009 1.605439,0.06769 0.67219,0.07029 1.33822,0.190182 2.012006,0.246364 0.78773,0.05483 1.568764,0.157602 2.314149,0.433755 0.268562,0.08855 0.529608,0.167937 0.789683,0.280324 0.125531,0.05425 0.486373,0.249496 0.368924,0.179453 -5.412777,-3.228107 -3.360354,-2.022853 -2.232176,-1.26062 0.967764,0.813556 1.822252,1.755502 2.708053,2.655199 0.77605,0.900023 1.613884,1.745293 2.385153,2.650123 0.80024,0.889931 1.674526,1.710216 2.537748,2.538428 0.980035,0.914598 2.007873,1.768007 3.008241,2.659121 0.747292,0.799229 1.350772,1.710044 1.997619,2.590011 0.68671,0.91445 1.34727,1.863386 1.786,2.925559 0.38811,0.932722 0.67641,1.884309 0.83631,2.883529 0.0721,0.510419 0.12241,1.014143 0.0129,1.526017 -0.0872,0.404698 -0.25919,0.763823 -0.53404,1.078235 -0.36537,0.293248 -0.76935,0.390562 -1.23471,0.422037 -0.52814,0.041 -1.03245,-0.01974 -1.503662,-0.280461 5.976952,3.466613 3.091522,1.865153 1.794592,0.97835 -0.52055,-0.47833 -0.94742,-1.017998 -1.26832,-1.652993 -0.44618,-0.657669 -0.893654,-1.313436 -1.322205,-1.982756 -0.304589,-0.571481 -0.548556,-1.172823 -0.8714,-1.733843 -0.400143,-0.694423 -0.821423,-1.369457 -1.272879,-2.032498 -0.475072,-0.785227 -1.046467,-1.500743 -1.697654,-2.148578 -1.582129,-1.61323 -3.673594,-2.567101 -5.66208,-3.611448 -0.892623,-0.42563 -1.83795,-0.735251 -2.830465,-0.809165 -1.535017,-0.07264 -3.05802,0.147709 -4.563391,0.440373 -2.341364,0.508518 -4.671755,1.21604 -6.727158,2.479029 -0.325763,0.213664 -1.236805,0.799417 -1.550413,1.050597 -0.843068,0.675238 -1.477304,1.578726 -2.169771,2.394696 -0.82976,1.12327 -1.512853,2.318337 -1.799429,3.702873 -0.07554,0.349353 -0.219128,0.978151 -0.263141,1.328568 -0.13807,1.099251 0.0538,2.190205 0.333938,3.252398 0.713095,2.128512 1.692961,4.143283 2.999267,5.976634 0.844777,1.107572 1.746377,2.162045 2.740289,3.139659 0.520618,0.540594 1.048385,1.081397 1.625097,1.559862 0.329399,0.331076 0.661977,0.659265 0.981369,1.000067 0.298733,0.345016 0.616254,0.69874 0.783595,1.128297 0.291452,0.630896 0.716045,1.2066 1.176825,1.723546 0.39149,0.581871 0.980075,0.970777 1.494705,1.437822 0.91181,0.687316 1.788332,1.414521 2.621688,2.196293 1.533212,1.328243 3.102723,2.615052 4.707747,3.855495 2.664669,1.98904 5.396573,3.884687 8.095011,5.827324 1.953149,1.478886 3.817285,3.06755 5.713495,4.618077 1.98604,1.740262 3.79784,3.672682 5.40434,5.770642 1.90308,2.66594 3.59357,5.46395 5.07193,8.38922 1.85568,3.55846 3.78403,7.10899 5.07628,10.92109 1.33991,4.04142 2.35047,8.18057 2.87486,12.41228 0.0686,0.72665 0.15193,1.45205 0.20566,2.17994 0.16448,2.22838 0.11711,4.46534 0.1447,6.69763 z" />
    <path
       style="fill:#000000;stroke-width:0.264583"
       id="path2"
       d="m 112.76421,32.105518 c 0.13568,-0.815594 0.38262,-1.603812 0.77001,-2.334009 0.55081,-0.866521 1.28959,-1.575522 2.09409,-2.202355 0.81343,-0.57436 1.76945,-0.838541 2.74374,-0.966552 1.07028,-0.116691 2.14282,-0.07428 3.21375,-1.56e-4 1.17131,0.07072 2.35055,0.280115 3.41408,0.787141 0.17191,0.08355 0.34444,0.165867 0.51575,0.250648 0.18166,0.0899 0.36535,0.176059 0.54315,0.27338 0.18776,0.102783 0.73888,0.432599 0.55292,0.326591 -5.22481,-2.978362 -2.71669,-1.57385 -1.57376,-0.813733 1.0535,0.675944 1.98086,1.509625 2.82745,2.426279 0.77161,0.855821 1.2918,1.882923 1.71983,2.942648 0.35919,0.924634 0.43419,1.909159 0.48435,2.889152 0.0453,1.264767 0.0256,2.530639 0.0262,3.795922 0.003,1.462166 0.006,2.924355 0.003,4.386527 0.03,1.20388 -0.13659,2.398651 -0.22401,3.596679 -0.0988,0.922041 -0.25077,1.833759 -0.43901,2.741131 -0.13951,0.573921 -0.13673,1.173364 -0.25181,1.749724 -0.12948,0.285213 -0.19651,0.58524 -0.24253,0.894062 -0.0385,0.359108 -0.13685,0.706331 -0.28669,1.033975 -0.15712,0.328658 -0.37086,0.606632 -0.63864,0.85108 -0.15904,0.250661 -0.46033,0.351677 -0.69857,0.523891 -0.30468,0.213625 -0.62641,0.40122 -0.92817,0.620935 -0.30077,0.203076 -0.65231,0.320789 -0.98425,0.471614 -0.10396,0.0503 -0.19611,0.09848 -0.31037,0.111782 0,0 3.28928,2.236557 3.28928,2.236557 v 0 c 0.10961,-0.05191 0.21781,-0.106217 0.32607,-0.160885 0.34543,-0.165508 0.71735,-0.283274 1.01805,-0.528762 0.31079,-0.202017 0.61604,-0.41248 0.92347,-0.61931 0.26899,-0.168389 0.57617,-0.304935 0.7536,-0.580332 0.27257,-0.299112 0.51035,-0.621244 0.69639,-0.981893 0.16083,-0.359918 0.29984,-0.74287 0.35223,-1.133607 0.0299,-0.301736 0.0909,-0.587105 0.21532,-0.865235 0.14091,-0.579377 0.0705,-1.197599 0.21898,-1.779799 0.17016,-0.928164 0.34142,-1.85502 0.44255,-2.79409 0.0782,-1.213385 0.21398,-2.4261 0.1907,-3.643371 -10e-4,-1.458656 0.004,-2.917338 0.0157,-4.375946 0.008,-1.266674 0.007,-2.533412 -5.3e-4,-3.800086 -0.0235,-1.017217 -0.0819,-2.037305 -0.4242,-3.006363 -0.42119,-1.091139 -0.92248,-2.157187 -1.66773,-3.069148 -0.82704,-0.960794 -1.76549,-1.819288 -2.81876,-2.528615 -2.13357,-1.43356 -4.34197,-2.773104 -6.67722,-3.851142 -1.10815,-0.417472 -2.27934,-0.614225 -3.46208,-0.660363 -1.10179,-0.06991 -2.20825,-0.135007 -3.30483,0.03917 -1.02102,0.179277 -2.00493,0.525719 -2.85384,1.135835 -0.83401,0.673435 -1.57467,1.450752 -2.18484,2.335085 -0.40696,0.763775 -0.65141,1.588379 -0.87396,2.421954 z" />
    <path
       style="fill:#000000;stroke-width:0.264583"
       id="path3"
       d="m 134.41337,44.131944 c 1.15395,0.490625 2.35828,0.858499 3.49999,1.379011 1.27894,0.561178 3.49035,1.861791 -2.1124,-1.280756 -0.1,-0.05606 0.19332,0.123172 0.28885,0.186487 0.29952,0.198525 0.26927,0.183388 0.57173,0.411805 0.57851,0.508802 1.17413,1.006787 1.71026,1.561023 0.41043,0.446887 0.74042,0.926539 0.96952,1.48657 0.30538,0.679902 0.35751,1.417825 0.4019,2.151001 0.04,0.994606 0.0369,1.990469 0.0391,2.985728 0.004,1.136883 0.0129,2.26976 -0.0684,3.404195 -0.0686,1.31731 -0.33377,2.613962 -0.6591,3.889074 -0.48113,1.514938 -1.13669,2.966764 -1.81245,4.402923 -0.62363,1.426935 -1.32776,2.813537 -2.10112,4.164491 -0.4488,0.766284 -0.95824,1.473253 -1.59757,2.089552 -0.52088,0.438627 -1.14635,0.731073 -1.77127,0.990328 -0.44456,0.159218 -0.88415,0.327718 -1.33822,0.460526 -0.75437,0.08429 -0.0955,0.963146 0.0956,1.264438 0.63762,1.004104 1.25879,2.019461 1.87667,3.036046 1.05132,1.64678 2.04324,3.321709 2.917,5.06948 1.11371,2.329641 2.16812,4.68965 3.14249,7.081102 0.79421,2.016617 1.40004,4.098869 2.11324,6.143993 0.55394,1.436147 1.06359,2.888826 1.62153,4.323389 0.58224,1.52825 1.16081,3.05704 1.77785,4.5717 0.83112,1.84674 1.67484,3.68764 2.62375,5.47719 1.18809,1.98101 2.18238,4.04703 2.91362,6.23752 0.69521,2.14705 1.19047,4.34238 1.57476,6.56369 0.30912,1.70777 0.51004,3.43175 0.78694,5.14473 0.27544,1.86117 0.55417,3.72225 0.76403,5.59216 0.17487,1.67235 0.237,3.35294 0.27172,5.03308 0.036,1.82372 0.18658,3.64246 0.24461,5.46604 0.0678,1.54816 0.0926,3.09453 0.0707,4.644 -0.0149,0.8637 -0.0372,1.72722 -0.0568,2.5908 -0.005,0.36888 -0.0158,0.73766 -0.0176,1.10658 0,0 3.52986,1.79913 3.52986,1.79913 v 0 c -7.9e-4,-0.3722 -0.009,-0.74435 -0.008,-1.11656 -0.005,-0.87275 -0.003,-1.7454 0.004,-2.61815 0.003,-1.5692 -0.072,-3.13368 -0.14753,-4.70053 -0.0609,-1.81178 -0.14219,-3.62277 -0.19359,-5.43444 -0.0302,-1.70284 -0.12232,-3.40295 -0.3194,-5.09553 -0.20153,-1.86402 -0.42258,-3.7276 -0.69832,-5.58187 -0.28413,-1.72325 -0.51868,-3.45408 -0.83379,-5.1722 -0.39381,-2.2412 -0.88593,-4.46014 -1.58455,-6.62856 -0.71013,-2.20282 -1.64067,-4.3189 -2.86457,-6.28889 -0.96795,-1.75434 -1.75062,-3.58793 -2.57726,-5.4106 -0.61675,-1.5122 -1.23327,-3.0238 -1.77531,-4.56508 -0.56916,-1.435494 -1.06392,-2.899108 -1.65432,-4.326554 -0.76088,-2.049756 -1.38711,-4.145357 -2.17061,-6.187032 -0.96891,-2.404944 -2.0519,-4.762125 -3.14863,-7.11095 -0.816,-1.742572 -1.73838,-3.422269 -2.77514,-5.044234 -0.60373,-1.006575 -1.23705,-1.994953 -1.80632,-3.021962 -0.0333,-0.0486 -0.46362,-0.685408 -0.46677,-0.685654 -0.0729,-0.0057 -0.12331,0.0833 -0.16747,0.141544 -0.0467,0.06157 0.38039,-0.199184 0.22147,-0.0684 0.44624,-0.1641 0.8913,-0.331669 1.33106,-0.512543 0.65118,-0.307356 1.31602,-0.623022 1.84861,-1.117693 0.62355,-0.674147 1.15785,-1.4038 1.61097,-2.204579 0.73428,-1.383004 1.39403,-2.802115 2.03368,-4.231056 0.68604,-1.454324 1.44371,-2.887398 1.90198,-4.435033 0.33922,-1.291968 0.6235,-2.607884 0.70144,-3.944551 0.0894,-1.138677 0.12594,-2.277001 0.10163,-3.419491 0.004,-0.998894 0.01,-1.997932 -0.0181,-2.996589 -0.028,-0.760092 -0.032,-1.537626 -0.31464,-2.255623 -0.11342,-0.281344 -0.18785,-0.599657 -0.34673,-0.860041 -0.16259,-0.266478 -0.41254,-0.479576 -0.57431,-0.747591 -0.48713,-0.615823 -1.1456,-1.067763 -1.69418,-1.627764 -1.58418,-1.37577 -3.51105,-2.337649 -5.42415,-3.182895 -1.18129,-0.483079 -2.40329,-0.873863 -3.54715,-1.444273 z" />
    <path
       style="fill:#000000;stroke-width:0.264583"
       id="path4"
       d="m 74.066113,35.050309 c -0.599419,0.591336 -1.318598,1.032261 -1.937432,1.600671 -0.647089,0.695965 -1.208329,1.473382 -1.692529,2.290178 -0.475933,0.712149 -0.793353,1.501753 -1.12912,2.284483 -0.215861,0.516787 -0.4327,1.037434 -0.553151,1.586111 -0.33205,1.792055 -2.583871,-0.806193 3.430283,2.389556 0.699476,-0.345223 1.31345,-0.801979 1.892123,-1.320022 0.572476,-0.501709 0.98543,-1.148742 1.525105,-1.681282 0.458555,-0.435745 0.952932,-0.831376 1.408195,-1.270407 0.329724,-0.357278 0.719942,-0.649084 1.074134,-0.975829 0.03872,-0.03799 0.07744,-0.07598 0.116166,-0.113966 0,0 -3.381756,-2.075191 -3.381756,-2.075191 v 0 c -0.03366,0.03351 -0.06732,0.06702 -0.100976,0.100534 -0.366525,0.316867 -0.703135,0.663397 -1.0551,0.996675 -0.473694,0.425786 -0.944954,0.854662 -1.409213,1.290677 -0.51544,0.541729 -0.940332,1.165333 -1.501638,1.663057 -0.563046,0.491704 -1.162261,0.924277 -1.867389,1.192744 0.911302,0.572127 3.198889,3.373448 3.36796,1.667539 0.07861,-0.531926 0.261975,-1.039725 0.465273,-1.535567 0.327223,-0.76929 0.643863,-1.540563 1.100442,-2.245821 0.44968,-0.792178 1.005046,-1.521319 1.628449,-2.185466 0.641697,-0.559419 1.352352,-1.031901 1.995908,-1.590021 z" />
    <path
       style="fill:#000000;stroke-width:0.264583"
       id="path5"
       d="m 72.747176,59.118264 c -0.339974,-0.580835 -0.682707,-1.1606 -1.005311,-1.751317 -0.199988,-0.408503 -0.469633,-0.772123 -0.716261,-1.150919 -0.170241,-0.243266 -0.202142,-0.530034 -0.216665,-0.818446 -0.05402,-0.358 0.06342,-0.681252 0.146161,-1.02199 0.08315,-0.363551 0.116118,-0.733841 0.189751,-1.099304 0.07271,-0.515641 0.230355,-1.0116 0.361741,-1.513922 0.113478,-0.522494 0.367308,-0.992947 0.526878,-1.500357 0.08971,-0.211005 0.135052,-0.453824 0.253686,-0.65287 0.0081,-0.01368 0.04303,-0.03757 0.04262,-0.02164 -0.0019,0.07301 0.01778,0.246414 -0.04759,0.213871 -1.141333,-0.568085 -2.215957,-1.261341 -3.323937,-1.892012 0.422291,0.765088 0.801307,1.561992 1.233795,2.326746 0.402862,0.769329 0.854622,1.508506 1.312838,2.245431 0.252026,0.418574 0.520642,0.827887 0.828008,1.208022 0.212702,0.270282 0.43818,0.519162 0.68339,0.763547 0.269735,0.382244 0.553437,0.747938 0.86991,1.093214 0.04704,0.05169 0.09408,0.103372 0.141119,0.155061 0,0 3.633414,1.558584 3.633414,1.558584 v 0 c -0.04265,-0.06383 -0.08529,-0.127651 -0.127942,-0.191476 -0.322998,-0.330356 -0.670462,-0.65803 -0.878668,-1.075788 -0.206362,-0.280284 -0.492141,-0.470014 -0.670012,-0.76064 -0.336481,-0.360884 -0.637516,-0.752674 -0.897242,-1.172864 -0.469948,-0.731932 -0.937289,-1.464037 -1.332836,-2.23984 -0.449194,-0.740934 -0.914987,-1.504876 -1.144437,-2.345756 -3.047169,-1.834232 -3.257999,-3.282138 -4.037081,-1.105221 -0.150146,0.517737 -0.408233,0.993148 -0.541493,1.516978 -0.115441,0.509953 -0.292746,1.002557 -0.364176,1.521923 -0.08837,0.362461 -0.15164,0.718376 -0.197352,1.08907 -0.08533,0.371623 -0.245634,0.724361 -0.196575,1.114431 0.006,0.339095 -7.94e-4,0.677769 0.126762,0.999368 0.225629,0.401256 0.541896,0.732906 0.74803,1.147847 0.326112,0.587558 0.68194,1.157028 0.981059,1.756537 z" />
    <path
       style="fill:#000000;stroke-width:0.264583"
       id="path6"
       d="m 68.249545,51.414333 c 0.512368,1.088109 1.060336,2.1595 1.695953,3.180918 0.348858,0.588709 0.724945,1.158489 1.123429,1.714471 0.245189,0.312304 0.576588,0.529257 0.800094,0.858467 0.165897,0.292145 0.337225,0.580734 0.440836,0.901714 0.08305,0.109048 0.04653,0.69202 0.114146,0.410188 -0.01677,-0.03397 -0.01945,-0.08002 -0.05036,-0.101922 -0.100362,-0.0711 -0.235961,-0.07475 -0.343879,-0.13375 -0.249182,-0.136221 -0.499565,-0.269798 -0.744474,-0.41421 6.004351,3.329564 2.938888,2.103112 2.106906,0.858562 -0.291677,-0.610788 -0.32616,-1.306711 -0.246007,-1.969077 0.05488,-0.345704 0.02545,-0.181303 0.08663,-0.493503 0,0 -3.487711,-1.855941 -3.487711,-1.855941 v 0 c -0.05442,0.330919 -0.02678,0.156916 -0.08231,0.522102 -0.08623,0.731065 -0.07073,1.471319 0.130606,2.184757 0.752782,1.662917 3.439985,2.490912 4.555106,3.221702 0.438706,0.221808 0.977228,0.580779 1.454171,0.287853 0.05227,-0.07205 0.116356,-0.136861 0.156816,-0.216148 0.07471,-0.146402 -0.07805,-0.445577 -0.06729,-0.597938 -0.08812,-0.355745 -0.214381,-0.684969 -0.40617,-0.998098 -0.101928,-0.197485 -0.190373,-0.409136 -0.351639,-0.567896 -0.608333,-0.598871 0.252513,0.304628 -0.297487,-0.21784 -0.04604,-0.04373 -0.07908,-0.09937 -0.118618,-0.14905 -0.526031,-0.442264 -0.821285,-1.13914 -1.222274,-1.68393 -0.650955,-0.980223 -1.221063,-2.018951 -1.674265,-3.105666 z" />
    <path
       style="fill:#000000;stroke-width:0.264583"
       id="path7"
       d="m 88.291359,85.935171 c 0.369314,-0.326975 0.942504,-1.023496 1.397217,-1.207754 0.0856,-0.03469 0.182047,-0.03137 0.273071,-0.04706 1.788018,0.376229 3.598696,0.414848 5.413029,0.272288 1.914795,-0.361429 3.761428,-1.030058 5.528804,-1.841011 1.18794,-0.656029 1.56773,-0.518985 2.77311,-0.157535 0.13949,0.01804 0.27987,0.07809 0.41847,0.05416 0.83967,-0.144907 2.78238,-1.299985 3.46764,-1.660477 3.36418,-1.769769 0.16549,-0.07572 3.3975,-1.791264 1.29046,-0.709512 2.63629,-1.311666 4.03322,-1.778206 0.5654,-0.188828 1.3148,-0.417708 1.92278,-0.479473 0.24263,-0.02466 0.48775,0.0026 0.73162,0.0038 0.55356,0.04463 1.12087,0.147138 1.62801,0.386477 0.13546,0.06393 0.51739,0.302078 0.38691,0.228523 -2.99596,-1.688832 -3.92878,-2.332278 -2.63177,-1.455673 1.76899,1.431705 3.79899,2.390671 5.77051,3.537293 0.91295,0.530964 -1.84164,-1.034367 -2.76246,-1.551551 1.07966,0.775989 1.51085,1.977708 1.82263,3.215984 0.0796,0.474536 0.36301,1.230281 -0.12386,1.604579 -0.11246,0.08645 -0.24969,0.134657 -0.37453,0.201988 -1.8243,0.715018 -3.77004,1.050952 -5.65019,1.589813 -0.44259,0.160663 -0.99706,0.321405 -1.38936,0.608166 -0.69284,0.506455 -1.08528,1.400987 -1.50745,2.119839 -0.57165,0.773906 -1.42167,1.22424 -2.21232,1.733309 -0.7122,0.45856 -0.60063,0.394343 -1.26613,0.903438 -1.05583,0.848956 -1.4357,2.079567 -1.7672,3.333549 -0.35803,1.243978 -1.10706,2.265595 -2.08605,3.089286 -0.59479,0.341857 -1.33403,1.079002 -2.05848,1.10427 -0.36137,0.01259 -0.66473,-0.198446 -0.96755,-0.351166 5.13594,3.055467 2.72873,1.62052 1.70472,0.710449 -0.44525,-0.395711 -0.85949,-0.818909 -1.26299,-1.256311 -0.76906,-0.830778 -1.48948,-1.703271 -2.2799,-2.514208 -0.876509,-0.846492 -1.913101,-1.498756 -2.919486,-2.17679 -0.911424,-0.648558 -1.851099,-1.255012 -2.796471,-1.852481 -0.808488,-0.500274 -1.560261,-1.08495 -2.318277,-1.657064 -0.924232,-0.642747 -1.925082,-1.162492 -2.868768,-1.774206 -0.568127,-0.359611 -1.101516,-0.746344 -1.539915,-1.257996 -0.230857,-0.251751 -0.427725,-0.56389 -0.568846,-0.850159 0.124478,-0.162147 0.346813,-0.279222 0.52097,-0.40023 0.112209,-0.07626 0.05421,-0.05309 0.170211,-0.0784 0,0 -3.316877,-2.193264 -3.316877,-2.193264 v 0 c -0.150424,0.09654 -0.08239,0.04862 -0.205682,0.141497 -0.244197,0.181057 -0.528045,0.334332 -0.661567,0.621376 -0.173024,0.449107 0.155366,0.881219 0.449041,1.205767 0.400187,0.587018 0.906343,1.031132 1.523108,1.387915 0.915183,0.647707 1.927624,1.143981 2.866617,1.755732 0.77329,0.563086 1.514404,1.172782 2.320888,1.688812 0.946727,0.601181 1.90944,1.179227 2.810762,1.848503 1.011086,0.665758 2.042858,1.316361 2.959134,2.110343 0.808895,0.786247 1.507307,1.669466 2.278742,2.490857 1.741366,1.992159 3.686676,3.289607 6.179816,4.440385 0.2044,0.06004 0.40193,0.15275 0.6132,0.18013 0.99956,0.12951 1.87441,-0.808079 2.64658,-1.279992 1.01633,-0.889103 1.79725,-1.983753 2.21155,-3.281471 0.33534,-1.169583 0.58868,-2.34206 1.60992,-3.134709 1.20015,-0.91022 2.62711,-1.55271 3.57948,-2.751958 0.8009,-1.380678 1.05119,-2.003914 2.67911,-2.523453 1.91846,-0.585094 3.92224,-0.875331 5.7889,-1.6135 0.16113,-0.103566 0.33905,-0.184772 0.48338,-0.310693 0.57093,-0.498112 0.39214,-1.305128 0.24685,-1.936813 -0.33016,-1.279425 -0.69044,-2.583466 -1.72599,-3.484036 -1.28028,-0.756076 -2.56345,-1.507281 -3.84085,-2.268225 -0.89273,-0.5318 1.79241,1.051848 2.68684,1.580782 0.20183,0.119356 -0.41093,-0.226584 -0.60903,-0.352041 -0.63159,-0.399979 -0.37267,-0.263287 -0.88003,-0.67989 -0.10384,-0.08526 -0.2143,-0.162118 -0.32145,-0.243178 -1.89009,-1.315434 -3.79291,-2.808071 -6.14445,-2.835153 -0.24709,0.02328 -0.49698,0.02617 -0.74129,0.06988 -0.62123,0.111176 -1.30369,0.351899 -1.88638,0.572273 -1.36935,0.517887 -2.69625,1.142002 -3.95959,1.883246 -1.33852,0.729117 -2.00014,1.110734 -3.39142,1.778966 -0.8794,0.422383 -2.51979,1.296135 -3.58014,1.293621 -0.13446,-2.64e-4 -0.26291,-0.05656 -0.39437,-0.08484 -1.235808,-0.311529 -1.740445,-0.220401 -2.869499,0.424733 -1.713677,0.815535 -3.5247,1.477541 -5.408293,1.755952 -1.091461,0.07543 -2.147228,0.0989 -3.237838,-0.02997 -0.609431,-0.07201 -1.207582,-0.236905 -1.819854,-0.278302 -0.175604,-0.01188 -0.3516,0.01704 -0.5274,0.02556 -0.695719,0.299916 -1.180811,0.898345 -1.768414,1.36394 z" />
    <path
       style="fill:#000000;stroke-width:0.264583"
       id="path8"
       d="m 143.4768,99.320746 c -1.13469,-1.213268 -2.13035,-2.544207 -3.15463,-3.849593 -0.42081,-0.531267 -0.78327,-1.113726 -1.28127,-1.580351 -1.35131,-1.26619 -3.08641,-2.108237 -4.80585,-2.775931 -1.17101,-0.456263 -2.27474,-0.05427 -3.36684,0.415935 -0.77339,0.383257 -1.57825,0.745969 -2.1866,1.379043 -0.31115,0.323781 -0.42706,0.544931 -0.66706,0.919578 -0.52397,0.978194 -0.62228,2.079678 -0.80099,3.152291 -0.0401,0.08917 -0.0515,0.198128 -0.12045,0.267502 -0.237,0.238537 -1.37008,0.139832 -1.69314,0.125444 -0.81491,-0.03633 -1.6302,-0.06648 -2.44565,-0.08785 -0.77016,0.103756 -1.54225,0.18428 -2.31776,0.233765 -0.63392,-0.01805 -1.0283,0.442304 -1.27261,0.974137 -0.15627,0.379106 -0.16751,0.791633 -0.17065,1.195676 -0.008,0.309688 -0.009,0.617888 0.0229,0.926108 0.1028,0.39293 0.17968,0.79046 0.23148,1.19307 0.0518,0.31049 0.0306,0.35405 -0.23907,0.48743 -0.5038,0.18089 -0.90871,0.66877 -1.21362,1.09422 -0.46977,0.74912 -0.26672,1.6059 -0.0417,2.40242 0.27281,0.94558 0.84157,1.71922 1.43896,2.48 0.74906,0.77745 0.9998,1.57093 1.16096,2.61547 0.15936,1.28118 10e-5,2.57124 -0.0739,3.85286 -0.003,0.87064 -0.12472,1.72444 -0.27846,2.57833 -0.14803,0.48962 -0.28988,0.95907 -0.23116,1.47351 0.0813,0.2602 0.23472,0.53184 0.47772,0.67773 2.6995,1.62066 2.5575,1.98821 4.51578,2.24321 0.82438,0.0387 1.67598,-0.17017 2.3582,-0.64018 0.55158,-0.55231 1.02046,-1.18387 1.47752,-1.81525 0.26761,-0.24044 0.45622,-0.75447 0.7524,-0.96063 0.14798,-0.103 0.35518,0.07 0.52464,0.13159 1.88855,0.39941 3.67715,1.13221 5.48514,1.78706 0.67162,0.24906 1.34235,0.50371 2.03019,0.70555 0.23454,0.0688 0.69787,0.20991 0.96142,0.18488 0.16735,-0.0159 0.32346,-0.0917 0.48519,-0.13758 1.02142,-0.48454 1.60724,-1.45384 2.21658,-2.35657 0.3018,-0.36552 0.64608,-1.32441 1.13621,-1.43811 0.0808,0.0509 0.15816,0.10765 0.24241,0.15258 0.26052,0.13892 0.53425,0.25183 0.79651,0.38743 0.12317,0.0637 0.48651,0.26616 0.36645,0.19682 -1.00568,-0.58082 -4.01845,-2.33019 -3.02342,-1.73132 1.20787,0.72698 2.44138,1.41047 3.66207,2.1157 -1.02089,-0.58761 -4.07931,-2.35774 -3.06267,-1.76282 1.211,0.70866 2.42836,1.40642 3.64576,2.10404 2.32933,1.33479 -10.46495,-6.01217 0.83343,0.48974 -6.76029,-5.651 -4.0602,-2.31442 -3.04525,-1.73564 1.19245,0.68001 2.38315,1.36322 3.58327,2.0296 0.22957,0.12748 0.32971,0.11171 0.54812,-0.011 0.43275,-0.39175 0.64747,-0.9464 0.96825,-1.42217 0.32256,-0.49647 0.62321,-1.00294 0.88908,-1.53183 0.24498,-0.4566 0.36925,-0.94154 0.42821,-1.45231 0.0886,-0.44611 0.16102,-0.89999 0.28578,-1.33788 0.13483,-0.37119 0.30987,-0.72566 0.43841,-1.09913 0.14297,-0.31377 0.38982,-0.54595 0.53871,-0.85704 0.0853,-0.25081 0.18941,-0.48746 0.33448,-0.70915 0,0 -3.44181,-1.99847 -3.44181,-1.99847 v 0 c -0.13826,0.24125 -0.27111,0.48429 -0.34076,0.75523 -0.14866,0.32386 -0.44032,0.5572 -0.55737,0.90146 -0.11935,0.38004 -0.30882,0.72878 -0.44117,1.10381 -0.15461,0.45643 -0.18095,0.94909 -0.31544,1.41294 -0.0412,0.46485 -0.13167,0.91086 -0.35441,1.32735 -0.26242,0.51164 -0.5357,1.01628 -0.85122,1.49792 -0.24754,0.36797 -0.45273,0.91803 -0.83965,1.14562 -0.11861,-0.0799 -0.50952,-0.25918 -0.3861,-0.18697 1.06575,0.62353 2.1384,1.23518 3.20614,1.85531 0.0578,0.0336 -0.11756,-0.0638 -0.17633,-0.0956 -1.18485,-0.68935 -2.3697,-1.37871 -3.55455,-2.06807 1.06448,0.61914 2.12756,1.24071 3.19346,1.85743 0.0641,0.0371 -0.12404,-0.0809 -0.18786,-0.11843 -1.18967,-0.69896 -2.38046,-1.39602 -3.57252,-2.09089 -0.079,-0.0461 -0.31956,-0.17783 -0.24056,-0.1318 1.02357,0.59646 4.09433,2.38571 3.07435,1.78313 -1.21204,-0.71604 -2.43369,-1.41568 -3.65054,-2.12352 1.01514,0.58723 4.06663,2.33831 3.04542,1.76169 -1.23494,-0.6973 -2.4534,-1.42344 -3.68664,-2.12375 -0.35198,-0.19988 -0.84415,-0.4558 -1.25056,-0.49969 -0.13637,-0.0147 -0.27277,0.0292 -0.40915,0.0439 -0.55395,0.40187 -0.82313,1.07344 -1.18949,1.63444 -0.54484,0.8265 -1.06351,1.75376 -2.05541,2.09064 -0.13781,0.0102 -0.27545,0.0384 -0.41342,0.0307 -0.91983,-0.0516 -1.98702,-0.66651 -2.86988,-0.89581 -1.84073,-0.66468 -3.67766,-1.3641 -5.59825,-1.76857 -0.19968,0.005 -0.40383,-0.0275 -0.59903,0.0148 -0.31962,0.0693 -0.68323,0.95141 -0.93047,1.15078 -0.42668,0.59265 -0.86293,1.19197 -1.41194,1.67843 -0.66621,0.37155 -1.40321,0.54863 -2.16535,0.42303 -0.15489,-0.035 -0.31292,-0.0583 -0.46466,-0.10512 -0.128,-0.0395 -0.48594,-0.22274 -0.37162,-0.15293 7.26662,4.43803 3.25394,2.135 2.52978,1.3883 -0.22197,-0.43238 0.0285,-0.90034 0.13709,-1.33352 0.12897,-0.87756 0.2452,-1.75478 0.24044,-2.64434 0.0745,-1.30433 0.20152,-2.61444 0.0989,-3.92022 -0.10576,-1.03418 -0.26686,-2.0251 -1.03662,-2.79226 -0.59145,-0.72684 -1.21122,-1.44243 -1.5065,-2.35038 -0.2226,-0.65664 -0.46934,-1.41837 -0.0944,-2.06397 0.30314,-0.41367 0.67771,-0.74325 1.15572,-0.94082 0.32975,-0.22377 0.54225,-0.46797 0.45749,-0.88261 -0.0353,-0.41412 -0.10879,-0.82441 -0.21198,-1.22699 -0.0982,-0.26825 -0.0348,-0.57177 -0.0646,-0.85412 10e-4,-0.35271 -0.0153,-0.71469 0.0917,-1.05518 0.19035,-0.466366 0.5161,-0.633352 1.01963,-0.629765 0.76472,-0.06727 1.52684,-0.174323 2.29408,-0.202713 0.81408,0.0173 1.62751,0.04731 2.44092,0.08435 0.63115,0.0021 1.51613,0.0538 1.95254,-0.513553 0.0796,-0.103508 0.0993,-0.241581 0.14888,-0.362371 0.15366,-1.02576 0.19827,-2.086679 0.70299,-3.021647 0.21262,-0.328412 0.33125,-0.548876 0.60728,-0.829226 0.58046,-0.589536 1.35139,-0.939652 2.08661,-1.288015 1.0814,-0.401757 2.11926,-0.655881 3.21718,-0.151294 1.43571,0.660685 0.98084,0.472172 -2.28893,-1.416611 -0.16248,-0.09386 0.32385,0.191675 0.47162,0.307319 0.55017,0.430575 0.93352,1.020759 1.35891,1.56397 1.01242,1.260353 1.96034,2.571697 3.01873,3.793051 z" />
    <path
       style="fill:#000000;stroke-width:0.264583"
       id="path9"
       d="m 125.11788,142.7233 c 0.80776,-0.71975 1.59206,-1.46555 2.36482,-2.22262 0.88494,-0.7017 1.95357,-1.31454 3.07877,-1.53473 0.18458,-0.0361 0.37509,-0.0285 0.56263,-0.0427 0.18407,0.0617 0.37275,0.1111 0.55222,0.18515 0.19695,0.0813 0.3878,0.17746 0.57468,0.27977 0.18895,0.10345 0.73924,0.44244 0.55151,0.3368 -5.08559,-2.86173 -3.11858,-1.83519 -2.01146,-1.08743 2.48247,1.77643 3.66607,2.7557 6.25518,2.19558 0.88408,-0.27432 1.62669,-0.8387 2.40667,-1.31536 1.05007,-0.58558 1.94035,-0.2814 2.96497,0.17734 0.17144,0.0946 0.68393,0.38165 0.51434,0.28376 -0.95972,-0.55395 -1.92083,-1.10553 -2.88483,-1.65201 -0.20492,-0.11616 0.39239,0.26137 0.59677,0.3785 1.21639,0.69707 2.42554,1.40751 3.65861,2.07464 0.0955,0.0517 0.21119,0.0508 0.31679,0.0762 0.99082,0.0921 2.14554,-0.32245 3.07253,-0.66157 0.76667,-0.33607 1.52739,-0.70255 2.34907,-0.88172 0.8835,-0.14163 1.76204,0.0112 2.61839,0.22925 0.4461,0.14193 0.9162,0.21589 1.36162,0.35905 0.85502,0.27481 5.60893,3.15729 -2.53129,-1.48609 0.60129,0.32683 1.00221,0.84784 1.3667,1.4115 0.41648,0.63633 0.48281,1.31677 0.45638,2.05341 -0.10994,0.95392 -0.28006,1.89927 -0.46011,2.84208 -0.16474,0.87395 -0.21377,1.76146 -0.23438,2.64857 -0.0237,0.92963 0.0791,1.85983 0.25311,2.77196 0.12897,0.73314 0.25852,1.46512 0.39472,2.19705 0.13696,0.65148 0.16628,1.28627 -0.0976,1.90364 -0.0903,0.10935 -0.16447,0.2343 -0.27086,0.32805 -0.76267,0.67208 -1.87014,0.98456 -2.78689,1.37862 -0.92795,0.36281 -1.76548,0.90985 -2.71006,1.22658 -0.71603,0.26366 -1.33814,-0.11503 -1.95593,-0.46064 -0.19036,-0.10649 -0.75046,-0.44486 -0.55995,-0.33862 0.90364,0.50391 1.79974,1.0212 2.69961,1.5318 -2.07428,-1.23438 -4.03647,-2.9005 -6.52899,-2.91194 -0.70948,-0.003 -1.0785,0.0991 -1.76616,0.22833 -1.86042,0.635 -3.78755,0.89108 -5.74311,0.97563 -1.1187,-0.001 -2.26015,-0.0854 -3.30339,-0.52358 -0.33728,-0.14167 -0.65906,-0.31822 -0.99478,-0.46356 -1.04543,-0.43827 -1.94896,-0.47 -3.00736,-0.0884 -0.54585,0.1537 -1.10981,0.55487 -1.69791,0.54971 -0.10058,-8e-4 -0.19668,-0.0422 -0.29502,-0.0633 -0.32398,-0.14931 -0.67145,-0.25082 -0.98578,-0.42171 -0.11104,-0.0604 -0.42939,-0.26667 -0.31953,-0.20416 1.88616,1.07317 4.16096,2.41045 2.78532,1.60234 -9.49388,-5.43076 -0.58796,-0.32801 -0.44156,-0.24496 0.0696,0.0395 -0.13568,-0.0849 -0.20027,-0.13203 -0.23321,-0.17017 -0.40804,-0.36099 -0.58849,-0.58458 -0.41816,-0.59684 -0.66415,-1.2565 -0.8011,-1.96646 -0.1368,-0.99787 0.16438,-1.94472 0.46582,-2.88226 0.43725,-1.11499 0.79817,-2.25164 0.97542,-3.43707 0.15722,-0.85569 0.0926,-1.70999 -0.004,-2.56608 -0.0635,-0.50032 -0.0913,-1.0037 -0.11033,-1.5073 -0.0112,-0.36096 -0.0435,-0.72592 0.0469,-1.07831 0.20064,-0.35941 0.52673,-0.63878 0.8232,-0.91933 0.0471,-0.043 0.0941,-0.0861 0.14119,-0.12911 0,0 -3.37139,-2.07632 -3.37139,-2.07632 v 0 c -0.0452,0.0452 -0.0904,0.0905 -0.13566,0.13569 -0.3394,0.33714 -0.71687,0.66132 -0.93756,1.09263 -0.12218,0.39548 -0.11876,0.77502 -0.10012,1.18971 0.0163,0.51866 0.0635,1.03588 0.12282,1.55126 0.10687,0.8304 0.23648,1.65703 0.0884,2.49374 -0.16203,1.16606 -0.47087,2.29644 -0.9281,3.38361 -0.34276,0.98787 -0.67489,1.96813 -0.59449,3.03173 0.1156,0.75667 0.30703,1.45612 0.71222,2.11475 0.11607,0.19291 0.18855,0.33476 0.33592,0.50282 1.3165,1.50132 8.08357,4.46318 0.82849,0.61416 1.69805,1.00607 3.38198,2.35191 5.35864,2.76591 0.72821,-0.05 1.38237,-0.35788 2.05677,-0.61898 1.01576,-0.28546 1.86801,-0.12958 2.82464,0.30357 0.25921,0.11367 0.73592,0.33005 1.00392,0.41788 1.06313,0.34847 2.19337,0.37347 3.30107,0.35283 2.01279,-0.12136 3.89091,-0.35986 5.81671,-0.97841 0.88548,-0.13735 1.69531,-0.22006 2.58461,-0.0258 0.28678,0.0626 1.07693,0.43242 0.84279,0.25538 -0.39565,-0.29915 -3.98002,-2.36795 -1.84845,-1.13431 1.29671,0.76449 2.59004,1.53473 3.89011,2.29347 0.85416,0.49851 1.76273,0.94742 2.74723,0.55286 0.9311,-0.35481 1.77622,-0.88615 2.69814,-1.26491 1.14743,-0.50237 2.44345,-0.91566 3.25386,-1.92074 0.32721,-0.67656 0.35535,-1.3795 0.2067,-2.11565 -0.12831,-0.7382 -0.28444,-1.46918 -0.39647,-2.21039 -0.20208,-0.88288 -0.32659,-1.78768 -0.30238,-2.69547 0.0226,-0.8691 0.0553,-1.74011 0.2005,-2.59917 0.16034,-0.95994 0.35539,-1.91326 0.50213,-2.87561 0.0523,-0.79262 0.05,-1.55077 -0.35898,-2.26381 -0.32813,-0.58848 -0.69222,-1.21078 -1.28169,-1.56789 -2.9201,-1.70043 -3.07413,-2.1181 -5.5864,-2.65832 -0.91254,-0.19189 -1.84889,-0.31381 -2.77206,-0.10706 -0.8007,0.24254 -1.54385,0.63017 -2.31809,0.94252 -0.94062,0.31977 -1.97526,0.6985 -2.96867,0.42511 -1.37538,-0.55283 -0.55699,-0.24025 2.796,1.69317 0.0944,0.0545 -0.17835,-0.12554 -0.26902,-0.1861 -0.11806,-0.0788 -0.23438,-0.16071 -0.3571,-0.23206 -3.69512,-2.14822 -2.49659,-1.5589 -4.30463,-2.42292 -1.1377,-0.41782 -2.12183,-0.55873 -3.20553,0.1018 -0.73543,0.46836 -1.46388,0.98458 -2.32293,1.19728 -0.49245,0.0789 -0.98177,0.13678 -1.48106,0.062 -0.17883,-0.0268 -0.67689,-0.22953 -0.5271,-0.12823 0.83051,0.56167 4.13442,2.50121 2.58677,1.53482 -1.46574,-1.04485 -3.06534,-1.87346 -4.62702,-2.77078 -0.35118,-0.20178 -0.80673,-0.43469 -1.20348,-0.53173 -0.20776,-0.0508 -0.42451,-0.0528 -0.63676,-0.0791 -1.38172,0.25528 -2.69062,0.89424 -3.77551,1.78591 -0.76694,0.73821 -1.52142,1.50204 -2.38961,2.12269 z" />
    <path
       style="fill:#000000;stroke-width:0.320906"
       d="m 122.92088,118.11474 c 0.24939,-3.88746 -0.0557,-5.69823 -1.20728,-7.16425 -1.9581,-2.49284 -2.22637,-4.3216 -0.79302,-5.40602 0.93228,-0.70531 0.95045,-0.77049 0.76699,-2.75145 -0.10335,-1.11595 -0.0585,-2.23399 0.0997,-2.4845 0.20639,-0.326832 1.3308,-0.502128 3.98074,-0.62058 2.03121,-0.0908 3.85075,-0.297984 4.04341,-0.4604 0.19267,-0.162416 0.44185,-0.903515 0.55373,-1.646893 0.11188,-0.743376 0.41346,-1.783156 0.67018,-2.310619 0.58316,-1.198149 2.50702,-2.577033 3.94038,-2.824167 1.05534,-0.181961 1.14459,-0.109316 3.00464,2.445356 1.37536,1.88897 2.25028,2.771978 3.09657,3.125182 1.11441,0.465105 1.25235,0.691612 2.49737,4.100791 0.72479,1.98468 1.91289,4.91027 2.64022,6.5013 1.13371,2.47998 1.27087,2.99922 0.96107,3.63858 -0.19876,0.41017 -0.50969,1.49224 -0.69096,2.40459 -0.30092,1.51461 -1.76013,4.79135 -2.13369,4.79135 -0.086,0 -1.03311,-0.52098 -2.10477,-1.15772 -2.5672,-1.52537 -3.08545,-1.49403 -4.10246,0.24808 -1.15352,1.97593 -2.00313,2.89431 -2.67758,2.89431 -0.31898,0 -2.43843,-0.66983 -4.70987,-1.48849 -5.05347,-1.82137 -5.54843,-1.8498 -6.41039,-0.36797 -0.35849,0.6163 -0.87579,1.31805 -1.14955,1.55944 -0.45293,0.39939 -0.47773,0.12705 -0.27546,-3.02592 z"
       id="path10" />
    <path
       style="fill:#000000;stroke-width:0.353055"
       d="m 101.70794,98.166246 c -1.66329,-1.908 -4.055964,-3.927304 -8.39297,-7.083278 -7.697819,-5.601587 -7.399457,-5.327137 -6.705788,-6.168287 0.477568,-0.5791 0.95116,-0.635559 3.794245,-0.452333 3.582688,0.230892 5.97154,-0.264809 9.426425,-1.956033 1.496858,-0.732742 2.240258,-0.888829 3.432268,-0.720652 1.38758,0.195775 1.86238,0.0178 5.39237,-2.021183 5.71637,-3.301887 8.04784,-4.441929 10.03161,-4.905241 1.64156,-0.383394 1.89794,-0.345005 3.30775,0.495232 1.66416,0.991833 2.56657,2.318119 3.13143,4.602319 0.27681,1.119356 0.26446,1.580162 -0.0516,1.921823 -0.22858,0.247186 -2.15971,0.968053 -4.29138,1.601927 -3.96539,1.179149 -5.01963,1.849394 -5.93037,3.770312 -0.26067,0.549804 -1.19414,1.531292 -2.07437,2.181077 -2.64572,1.95306 -3.39514,2.921798 -4.32402,5.589412 -0.97376,2.796475 -1.9092,4.210888 -3.4253,5.179069 l -0.99383,0.63466 z"
       id="path11" />
    <path
       style="fill:#ffffff;stroke-width:1.07831"
       d="m 548.32013,590.33559 c -8.08046,-5.22072 -13.93499,-5.97351 -25.34026,-3.25834 -12.68812,3.02057 -24.18644,3.06698 -31.64339,0.12772 -6.64776,-2.6203 -10.19975,-2.77175 -16.10893,-0.68687 l -4.35196,1.53546 -1.38356,-3.34021 c -1.88675,-4.55503 -1.56374,-8.7187 1.31757,-16.98365 1.86346,-5.3453 2.45879,-9.50341 2.50802,-17.51758 l 0.0646,-10.50856 6.76629,-5.90109 c 3.72146,-3.2456 8.57283,-6.44109 10.78083,-7.10109 3.72458,-1.11334 4.47725,-0.92113 10.42096,2.66121 8.46023,5.09908 14.86955,5.27585 22.70792,0.62629 2.96535,-1.75898 6.41518,-3.20642 7.66628,-3.21654 1.2511,-0.0101 5.27478,1.52886 8.9415,3.41994 l 6.66678,3.43832 7.77228,-2.43637 c 15.56142,-4.87801 15.71145,-4.9087 18.75942,-3.83678 4.11762,1.44809 4.91944,6.13089 3.36059,19.62652 -1.02751,8.89562 -0.99355,13.01722 0.17332,21.02703 1.78334,12.2416 1.72052,13.63445 -0.71965,15.95475 -2.21778,2.10884 -19.55909,9.6786 -21.93308,9.57415 -0.8652,-0.0381 -3.75667,-1.48001 -6.42549,-3.20431 z"
       id="path12"
       transform="scale(0.26458333)" />
    <path
       style="fill:#ffffff;stroke-width:1.07831"
       d="m 492.78722,519.59624 c -7.29175,-4.13833 -10.70241,-4.21198 -18.03606,-0.38947 -2.38057,1.24082 -4.442,2.11214 -4.58095,1.93627 -0.13897,-0.17589 -0.85693,-4.2017 -1.59548,-8.94626 -2.00017,-12.84926 -7.91769,-35.50326 -11.83009,-45.28898 -4.56725,-11.42367 -21.82343,-44.88423 -29.65261,-57.49787 -3.55832,-5.73283 -10.36616,-14.36899 -15.84334,-20.0982 -9.37172,-9.803 -9.53555,-10.06312 -6.77419,-10.75618 1.55639,-0.39063 5.33035,-3.23479 8.38659,-6.32036 4.20945,-4.24986 6.03898,-7.16236 7.54549,-12.012 2.10058,-6.76203 4.62822,-9.81531 12.66299,-15.29629 2.71462,-1.85179 6.35176,-5.49108 8.08252,-8.08732 3.3419,-5.01299 3.65884,-5.16127 22.7457,-10.64088 9.89938,-2.842 11.53318,-4.3998 10.61785,-10.124 -1.12619,-7.04274 -4.49261,-13.47208 -8.12461,-15.51664 -1.82359,-1.02656 -7.16829,-4.60549 -11.87712,-7.95317 -8.65346,-6.15209 -16.33562,-9.54877 -21.59612,-9.54877 -4.79164,0 -13.71676,3.60857 -30.89162,12.48997 -15.66714,8.10175 -16.63373,8.44796 -22.89526,8.20068 -5.14047,-0.20301 -7.64593,0.30349 -11.72436,2.37019 -10.2558,5.19701 -15.64264,6.09633 -34.24073,5.71642 l -17.22128,-0.35178 -3.39698,-5.14004 c -1.86834,-2.82701 -7.728,-9.58667 -13.02148,-15.02147 -10.90404,-11.19513 -15.21854,-17.12307 -19.99437,-27.47141 -4.5665,-9.89478 -4.73912,-19.69775 -0.49946,-28.36331 2.30352,-4.70822 3.44305,-5.96055 5.36159,-5.89226 1.97929,0.0704 2.49942,-0.5663 2.77249,-3.39415 0.90483,-9.37005 25.03729,-19.9734 45.87712,-20.15755 l 9.55075,-0.0844 4.72226,5.21019 c 2.59724,2.86559 6.81988,8.94019 9.38363,13.49911 10.35776,18.41837 13.15366,21.36548 27.16934,28.63868 7.32996,3.80376 11.70472,3.66369 15.87671,-0.50828 3.16646,-3.16647 3.27571,-3.57962 2.66789,-10.08867 -0.70249,-7.52286 -4.14969,-16.22088 -9.53158,-24.05024 -1.94805,-2.83394 -14.47576,-16.10914 -27.83936,-29.50043 -21.95059,-21.99608 -25.09365,-24.74049 -32.54078,-28.41347 -7.10188,-3.5027 -9.8901,-4.22837 -20.13595,-5.24066 l -11.89262,-1.17499 -1.29109,-9.0954 c -2.11738,-14.91636 1.8662,-22.84236 15.17378,-30.19084 18.23213,-10.06783 54.51691,-17.867704 70.9257,-15.246388 8.90456,1.422508 11.84271,2.997738 19.06763,10.222648 5.23673,5.23674 7.66105,9.4888 21.65323,37.97815 17.20453,35.02995 20.51521,43.49474 22.39073,57.24887 l 1.24408,9.12349 6.90315,3.09723 c 3.79674,1.70348 7.03139,2.96489 7.18811,2.80313 0.75672,-0.78102 -2.9286,-20.84481 -4.9369,-26.87764 -1.25309,-3.76423 -9.31191,-21.31372 -17.90848,-38.99887 -10.51475,-21.6313 -15.30041,-32.57137 -14.62267,-33.42758 0.5541,-0.70002 1.5807,-3.05344 2.28135,-5.22982 1.69444,-5.26348 9.46262,-12.29221 15.35364,-13.89217 6.85563,-1.861937 21.243,-0.73051 27.16494,2.13625 6.00018,2.90463 14.12885,11.48402 17.21974,18.17451 2.21201,4.7881 2.34992,6.63715 2.34992,31.5052 0,27.56997 -1.88817,44.58033 -5.6069,50.51217 -0.87146,1.39008 -3.96964,4.01011 -6.88483,5.8223 -2.9152,1.81219 -5.2939,3.58629 -5.28598,3.94245 0.008,0.35614 2.77932,2.44163 6.15868,4.63442 l 6.1443,3.98687 5.26242,-2.86417 c 6.16811,-3.3571 8.98114,-6.60192 10.3943,-11.98978 1.90113,-7.24832 4.37518,-26.77321 4.37518,-34.52836 v -7.70421 l 2.4262,1.52214 c 1.33441,0.83718 4.21383,2.08853 6.39872,2.78078 5.14244,1.62931 11.20775,8.39436 12.80878,14.28651 0.82401,3.03254 1.08403,10.25633 0.74937,20.81856 -0.59745,18.85564 -2.3012,25.13355 -12.15107,44.77361 -7.2703,14.4966 -11.7404,19.71731 -18.92588,22.10394 -2.92827,0.97262 -5.32413,2.32109 -5.32413,2.9966 0,0.67551 4.11984,8.03641 9.15519,16.35756 9.92043,16.39393 19.93816,37.53798 25.90035,54.66695 2.06997,5.94687 3.76358,11.26693 3.76358,11.82237 0,0.55545 -1.71863,-0.70873 -3.81918,-2.80929 -5.29176,-5.29177 -17.64344,-11.34903 -23.14237,-11.34903 -2.71541,0 -6.8026,1.22752 -10.79116,3.24093 -7.01806,3.54271 -9.88823,7.56433 -11.25389,15.76874 l -0.74114,4.4525 -12.8168,0.45698 c -16.19846,0.57753 -17.47713,1.40875 -17.12463,11.13203 0.21139,5.83116 -0.0812,6.88038 -2.62969,9.42884 -2.17453,2.17453 -2.86755,3.93894 -2.86755,7.30069 0,4.96197 0.70907,6.63822 6.32291,14.94726 l 3.92102,5.80353 -0.19976,11.44942 c -0.10988,6.29718 -0.67828,13.57144 -1.2631,16.16501 -0.58483,2.59358 -0.79764,5.40795 -0.47292,6.25418 0.85866,2.23761 12.08434,9.16858 16.49296,10.18308 6.41323,1.47581 11.36488,-0.59507 15.87831,-6.64065 2.19537,-2.94061 4.53574,-5.34656 5.20079,-5.34656 1.47054,0 12.5648,3.6057 21.91206,7.12154 7.32928,2.75681 12.01449,3.22985 15.18485,1.53312 1.07919,-0.57757 3.74204,-3.73162 5.91744,-7.00901 2.17542,-3.27739 4.20862,-5.95889 4.51825,-5.95889 0.30962,0 3.9545,1.98078 8.09974,4.40172 4.14523,2.42095 8.18631,4.15247 8.98018,3.84783 0.79386,-0.30463 3.13005,-3.5468 5.19151,-7.20481 2.06146,-3.65802 4.01147,-6.22484 4.33333,-5.70405 3.33855,5.40189 12.61444,63.29204 12.61444,78.72581 v 4.52879 l -4.58282,-2.02498 c -8.67035,-3.8311 -14.40605,-3.85722 -25.30447,-0.11521 l -9.77884,3.35758 -6.85509,-3.24298 c -8.49818,-4.0203 -11.73505,-4.01479 -19.25563,0.0328 -7.4403,4.00435 -10.7537,3.87611 -18.87041,-0.7304 z"
       id="path13"
       transform="scale(0.26458333)" />
    <path
       style="fill:#000000;stroke-width:0.316133"
       d="m 145.46202,157.48454 c -2.20461,-1.55954 -3.98306,-1.80633 -7.08912,-0.98371 -3.4569,0.91554 -6.7841,0.92396 -8.87174,0.0224 -1.86201,-0.80408 -2.85691,-0.85055 -4.51204,-0.21078 l -1.21897,0.47118 -0.38753,-1.02499 c -0.54044,-1.42943 -0.44424,-2.84175 0.35912,-5.27235 0.53526,-1.61942 0.69516,-2.82237 0.71003,-5.3415 l 0.0192,-3.25136 1.89763,-1.78476 c 1.04369,-0.98161 2.40736,-1.95207 3.03036,-2.15657 1.04654,-0.34351 1.25342,-0.28962 2.71856,0.7082 2.31772,1.57847 4.19094,1.67491 6.46762,0.33296 0.95203,-0.56115 1.99155,-1.02028 2.31006,-1.02028 0.3185,0 1.35422,0.44671 2.3016,0.99268 0.94737,0.54598 1.94655,0.98975 2.22038,0.98616 0.27383,-0.004 1.64661,-0.4503 3.05062,-0.99268 1.404,-0.54239 2.90705,-0.98616 3.3401,-0.98616 1.86068,0 2.29978,1.58887 1.75669,6.35649 -0.29784,2.61453 -0.29015,3.80459 0.0407,6.29265 0.50103,3.76837 0.48364,4.19479 -0.20013,4.90711 -0.62119,0.64712 -5.47841,2.97001 -6.14335,2.93796 -0.24234,-0.0117 -1.05223,-0.4539 -1.79975,-0.98269 z"
       id="path14" />
    <path
       style="fill:#ffff00;stroke-width:1.07831"
       d="m 492.78722,519.6498 c -7.78457,-4.35356 -9.124,-4.43018 -16.60093,-0.94963 -3.19981,1.48953 -5.89503,2.57658 -5.98937,2.41566 -0.0943,-0.16091 -1.22161,-6.14475 -2.50503,-13.2974 -4.44543,-24.77487 -8.85432,-37.6388 -21.79262,-63.58475 -14.23497,-28.54624 -23.88519,-43.70771 -35.56023,-55.8687 -8.46127,-8.81346 -8.6434,-9.11198 -5.96882,-9.78325 5.2921,-1.32824 12.91403,-10.20493 16.1575,-18.81745 2.57754,-6.84426 3.6768,-8.40566 7.97118,-11.32224 4.54906,-3.08957 9.01576,-7.34667 15.51482,-14.78676 1.74685,-1.99979 4.98867,-3.44575 11.58167,-5.16581 13.68696,-3.57083 18.13709,-5.41304 18.90263,-7.82505 0.80983,-2.55153 -1.2952,-12.2274 -3.49006,-16.04231 -2.54706,-4.42703 -24.11282,-18.28503 -31.56048,-20.28054 -8.76649,-2.34887 -12.23282,-1.33937 -35.36385,10.29906 -17.36676,8.73812 -19.013,9.3487 -24.57808,9.11583 -4.60564,-0.19273 -7.61229,0.46942 -13.19661,2.90623 -11.53696,5.03435 -14.82028,5.54479 -33.24585,5.1685 l -17.11855,-0.34959 -3.48732,-5.27809 c -1.91802,-2.90295 -7.53998,-9.42 -12.49324,-14.48232 -11.76144,-12.02042 -15.09798,-16.50298 -19.84756,-26.66479 -5.20599,-11.1383 -5.54734,-20.44864 -1.08417,-29.57103 2.30352,-4.70822 3.44305,-5.96055 5.36159,-5.89226 1.97929,0.0704 2.49942,-0.5663 2.77249,-3.39415 0.90976,-9.42109 24.92377,-19.97239 45.87712,-20.15755 l 9.55075,-0.0844 4.75141,5.24237 c 2.61327,2.88332 6.53135,8.46356 8.70684,12.40056 5.21666,9.44061 11.33935,18.45986 14.49616,21.35409 4.485,4.11192 18.51894,11.11317 22.30839,11.12918 5.2751,0.0223 9.89142,-4.91135 9.89142,-10.57139 0,-6.6552 -3.88204,-17.63631 -8.88152,-25.12308 -2.50154,-3.7461 -15.47719,-17.75286 -28.83476,-31.12615 -30.06604,-30.10141 -33.42193,-32.15114 -55.73427,-34.04165 l -8.80329,-0.7459 -1.30151,-9.16879 c -1.51013,-10.63842 -0.70142,-14.69421 4.30916,-21.61111 9.60187,-13.25499 58.66244,-27.592549 81.7799,-23.899518 8.90456,1.422508 11.84271,2.997738 19.06763,10.222648 5.23673,5.23674 7.66105,9.4888 21.65323,37.97815 17.20453,35.02995 20.51521,43.49474 22.39073,57.24887 l 1.24408,9.12349 6.90315,3.09723 c 3.79674,1.70348 7.03139,2.96489 7.18811,2.80313 0.76223,-0.7867 -2.93433,-20.85717 -4.9503,-26.87764 -1.26046,-3.76423 -9.29536,-21.27458 -17.85535,-38.91189 -11.9634,-24.64988 -15.33113,-32.50709 -14.55868,-33.96673 0.55269,-1.0444 1.58444,-3.46373 2.29276,-5.37631 1.83029,-4.94208 9.66999,-11.78114 15.23851,-13.29351 6.85563,-1.861937 21.243,-0.73051 27.16494,2.13625 6.00018,2.90463 14.12885,11.48402 17.21974,18.17451 2.21201,4.7881 2.34992,6.63715 2.34992,31.5052 0,21.44052 -0.38934,28.51676 -2.06624,37.55365 -2.30869,12.44159 -3.75208,14.94118 -11.12179,19.26012 l -4.94298,2.89678 3.32241,2.76357 c 1.82733,1.51997 4.74171,3.59689 6.47642,4.61537 3.10016,1.82017 3.25265,1.79254 8.92857,-1.61746 3.176,-1.90809 6.61335,-4.92497 7.63856,-6.70418 2.50741,-4.35151 5.19608,-19.9565 5.9915,-34.77455 0.46141,-8.59595 0.99715,-11.86031 1.8388,-11.2042 0.65323,0.50922 3.4973,1.78963 6.32017,2.84536 6.33177,2.36804 12.11825,8.5574 13.80545,14.76666 0.82401,3.03254 1.08403,10.25633 0.74937,20.81856 -0.59745,18.85564 -2.3012,25.13355 -12.15107,44.77361 -7.2703,14.4966 -11.7404,19.71731 -18.92588,22.10394 -2.92827,0.97262 -5.32413,2.30685 -5.32413,2.96496 0,0.6581 3.98011,7.75385 8.8447,15.76833 9.76485,16.08772 20.28179,38.25409 26.15375,55.12377 2.10136,6.03708 3.82067,11.43816 3.82067,12.00239 0,0.56421 -1.78057,-0.70342 -3.95683,-2.81697 -5.27797,-5.12591 -17.88285,-11.35732 -22.97354,-11.35732 -2.27689,0 -6.76324,1.38274 -10.42788,3.21399 -7.10991,3.55285 -10.38837,7.98994 -11.66011,15.78087 l -0.72438,4.43769 -12.88435,0.53064 c -16.22437,0.6682 -17.41186,1.43991 -17.06208,11.08799 0.21139,5.83116 -0.0812,6.88038 -2.62969,9.42884 -2.17453,2.17453 -2.86755,3.93894 -2.86755,7.30069 0,4.96197 0.70907,6.63822 6.32291,14.94726 l 3.92102,5.80353 -0.19976,11.44942 c -0.10988,6.29718 -0.61957,13.39039 -1.13264,15.76267 -1.35507,6.26539 -0.79182,7.4455 5.56937,11.66911 11.43796,7.59437 18.20943,7.3724 26.09298,-0.85533 2.57335,-2.6857 5.31949,-4.88309 6.10255,-4.88309 0.78305,0 6.49278,1.70776 12.68828,3.79501 6.19548,2.08724 13.80723,4.09444 16.91497,4.46043 6.18979,0.72897 5.04801,1.47629 14.03675,-9.18732 l 3.05788,-3.62766 7.96544,3.93663 c 4.381,2.16514 8.5574,3.70947 9.28091,3.43183 0.7235,-0.27763 3.00212,-3.49771 5.06358,-7.15572 2.06146,-3.65802 4.01147,-6.22484 4.33333,-5.70405 3.86807,6.25867 14.85015,79.34298 12.30498,81.88814 -0.37365,0.37366 -2.63937,-0.10485 -5.03491,-1.06336 -8.22158,-3.28962 -14.85629,-3.32904 -23.23082,-0.13801 -8.38488,3.19497 -12.11806,3.09965 -20.07939,-0.51268 -6.41287,-2.90973 -10.13406,-2.67335 -17.12227,1.0877 -7.42019,3.99354 -10.73174,3.87475 -18.87041,-0.67684 z"
       id="path15"
       transform="scale(0.26458333)" />
  </g>
</svg>
