<?xml version="1.0" encoding="UTF-8" standalone="no"?>
<!-- Created with Inkscape (http://www.inkscape.org/) -->

<svg
   width="210mm"
   height="297mm"
   viewBox="0 0 210 297"
   version="1.1"
   id="svg1"
   inkscape:version="1.3.2 (091e20e, 2023-11-25)"
   sodipodi:docname="robotPaw.svg"
   xmlns:inkscape="http://www.inkscape.org/namespaces/inkscape"
   xmlns:sodipodi="http://sodipodi.sourceforge.net/DTD/sodipodi-0.dtd"
   xmlns="http://www.w3.org/2000/svg"
   xmlns:svg="http://www.w3.org/2000/svg">
  <sodipodi:namedview
     id="namedview1"
     pagecolor="#ffffff"
     bordercolor="#000000"
     borderopacity="0.25"
     inkscape:showpageshadow="2"
     inkscape:pageopacity="0.0"
     inkscape:pagecheckerboard="0"
     inkscape:deskcolor="#d1d1d1"
     inkscape:document-units="mm"
     inkscape:zoom="0.86035127"
     inkscape:cx="492.2408"
     inkscape:cy="246.41098"
     inkscape:window-width="1392"
     inkscape:window-height="1027"
     inkscape:window-x="318"
     inkscape:window-y="50"
     inkscape:window-maximized="0"
     inkscape:current-layer="layer2" />
  <defs
     id="defs1" />
  <g
     inkscape:groupmode="layer"
     id="layer2"
     inkscape:label="Layer 2">
    <path
       style="fill:#000000;stroke-width:0.264583"
       id="path33"
       d="m 69.120858,45.921321 c 0.282236,-0.816314 0.607867,-1.61444 0.976646,-2.395305 0.273655,-0.522801 0.579956,-1.029964 0.897736,-1.527384 0.263967,-0.413866 0.529664,-0.822581 0.836867,-1.20637 0.247499,-0.3253 0.44923,-0.675677 0.653957,-1.028883 0.232579,-0.453159 0.498795,-0.888841 0.688538,-1.362453 0.171252,-0.418727 0.438121,-0.784574 0.605378,-1.205653 0.06558,-0.280313 0.239022,-0.513117 0.347101,-0.774309 0.109477,-0.257831 0.184063,-0.532511 0.303398,-0.785272 0.02267,-0.03568 0.03599,-0.07946 0.06803,-0.107032 0.147275,-0.126704 1.019575,0.28312 1.162376,0.343262 0.792072,0.264467 1.47811,0.741299 2.261703,1.024073 0.615622,0.300357 1.284248,0.458597 1.922478,0.696105 0.534607,0.162716 1.048729,0.382175 1.560486,0.606031 0.558507,0.239202 1.140108,0.429215 1.694871,0.678153 0.547597,0.272198 1.087567,0.552143 1.633127,0.825908 0.06722,0.03342 0.266645,0.137845 0.20166,0.100261 -10.62229,-6.143067 8.174112,4.731171 -2.515033,-1.436584 1.528955,1.072128 3.179839,1.933858 4.801634,2.871168 -0.99759,-0.572841 -3.992348,-2.287889 -2.992771,-1.718524 1.242579,0.707784 2.479514,1.425437 3.721777,2.133772 0.131691,0.07509 0.531363,0.292073 0.399984,0.216437 -5.332066,-3.069828 -3.412836,-1.974519 -2.251911,-1.232607 0.62701,0.414584 1.229194,0.863741 1.861849,1.270048 1.558626,0.988639 3.051083,2.171203 4.801532,2.789002 -0.271825,-0.225835 0.981032,0.515226 0.642773,0.322763 -1.07043,-0.609055 -4.25264,-2.485949 -3.202464,-1.842601 3.216728,1.970598 2.254525,1.667677 3.736766,2.109155 0.44894,0.28956 0.921478,0.468336 1.444678,0.571736 0.517732,0.09683 1.042628,0.09199 1.566609,0.09792 0.439809,-0.04345 0.847349,0.09323 1.263324,0.216215 0.420492,-0.009 0.7889,0.189391 1.192369,0.277106 0.340823,0.227944 0.729034,0.376833 1.123694,0.482052 2.2603,1.156367 -4.663973,-2.731584 -2.205112,-1.282078 0.381293,0.193175 0.672795,0.501177 1.001913,0.764201 0,0 3.678849,1.449544 3.678849,1.449544 v 0 c -0.3695,-0.226605 -0.62905,-0.565594 -1.00428,-0.775123 -0.17131,-0.128392 -0.3485,-0.232233 -0.53433,-0.338627 -1.26774,-0.725821 -2.595118,-1.724012 -4.045615,-2.229678 -0.387114,-0.15058 -0.750535,-0.365088 -1.151831,-0.473266 -0.395201,-0.120248 -0.793187,-0.200845 -1.197253,-0.281649 -0.430292,-0.09739 -0.85693,-0.153511 -1.299932,-0.125508 -0.506836,-0.0104 -1.016392,-0.0413 -1.509403,-0.168155 -0.502857,-0.155168 -0.948193,-0.414944 -1.4248,-0.632365 -0.05507,-0.03112 -0.219903,-0.125161 -0.165217,-0.09337 1.069438,0.621726 4.274918,2.491716 3.209476,1.863172 -1.450121,-0.855477 -2.714758,-1.728557 -4.211177,-2.356739 -1.28364,-0.675741 -0.0744,-0.04257 2.947079,1.716426 0.08227,0.04789 -0.170076,-0.08606 -0.251205,-0.135863 -0.167691,-0.10295 -0.331587,-0.21204 -0.49452,-0.322363 -0.09041,-0.06122 -0.175871,-0.129443 -0.263805,-0.194165 -0.660832,-0.370996 -1.266508,-0.826489 -1.878277,-1.272138 -0.484836,-0.286774 -0.244624,-0.134696 -0.720085,-0.457104 -1.223889,-0.724969 -2.454474,-1.438593 -3.68513,-2.15201 -3.294589,-1.90989 11.11948,6.512192 -1.145167,-0.653897 5.720887,3.32154 3.097406,1.927477 1.926643,1.007457 -11.802861,-6.82897 7.799707,4.510807 -4.442791,-2.54508 -0.533392,-0.281247 -1.082831,-0.535853 -1.630905,-0.786593 -0.57286,-0.228301 -1.145653,-0.456107 -1.714793,-0.693568 -0.513496,-0.209349 -1.02901,-0.411015 -1.559902,-0.572934 -0.647943,-0.209053 -1.286896,-0.440481 -1.912522,-0.710118 -0.753401,-0.32825 -1.464368,-0.751086 -2.249643,-1.00697 -0.545809,-0.186132 -1.270315,-0.438409 -1.607878,0.209616 -0.129292,0.260004 -0.210516,0.546082 -0.332306,0.80858 -0.09024,0.269354 -0.276374,0.503423 -0.329994,0.786887 -0.149963,0.428135 -0.417449,0.793136 -0.598411,1.206989 -0.165608,0.458269 -0.42019,0.873948 -0.645469,1.304266 -0.211873,0.331563 -0.415177,0.667806 -0.640506,0.990053 -0.29432,0.407844 -0.585304,0.816861 -0.855197,1.24124 -0.306959,0.521496 -0.617419,1.043839 -0.870834,1.59376 -0.359336,0.77715 -0.66494,1.578834 -1.037219,2.348939 z" />
    <path
       style="fill:#000000;stroke-width:0.264583"
       id="path34"
       d="m 69.136018,45.868838 c 0.150752,0.08068 0.303046,0.158549 0.452261,0.242044 0.402971,0.225485 1.601761,0.919802 1.202306,0.688141 -5.914956,-3.430333 0.144367,0.146878 2.257316,1.215094 1.442159,0.783069 2.973983,1.377635 4.44599,2.098466 1.238985,0.655627 2.535055,1.191792 3.831471,1.720889 1.030658,0.34444 1.989664,0.835174 2.940283,1.351003 0.177694,0.104224 0.711739,0.415245 0.533085,0.312676 -0.915596,-0.52565 -1.826599,-1.059296 -2.743915,-1.581936 -0.173508,-0.09886 0.341935,0.206381 0.512337,0.310497 0.168841,0.103161 0.334446,0.211688 0.505388,0.31133 1.254808,0.731438 2.518016,1.448419 3.771683,2.181804 0.952903,0.557443 -1.912916,-1.102638 -2.869374,-1.653958 3.501371,2.001062 5.855742,3.351684 0.876236,0.489109 -0.175212,-0.100724 0.349692,0.20271 0.524725,0.303747 1.278461,0.737992 2.565643,1.461063 3.835757,2.213329 0.895919,0.530638 -1.802699,-1.042937 -2.713072,-1.548381 -0.198469,-0.110191 0.384461,0.241501 0.576691,0.362252 0.975807,0.65855 1.961174,1.302361 2.94481,1.949063 1.637287,1.018453 0.437552,0.279059 4.185335,2.426243 0.162812,0.09328 0.327917,0.182501 0.491559,0.274314 0.156493,0.0878 0.624189,0.354365 0.46885,0.264534 -3.185216,-1.841966 -3.68971,-2.155963 -2.318684,-1.318342 1.726453,1.065561 3.370066,2.280988 5.24764,3.087549 0.342508,0.03977 0.613391,0.297419 0.948166,0.350348 0.05791,0.04183 0.144272,-0.0026 0.204393,0.03104 0.06218,0.03484 0.217837,0.181692 0.156004,0.146238 -3.178771,-1.822598 -4.298125,-2.632525 -3.154265,-1.810721 0.04131,0.03522 0.08261,0.07045 0.123915,0.105672 0,0 3.691311,1.435304 3.691311,1.435304 v 0 c -0.0462,-0.02045 -0.09238,-0.04093 -0.138563,-0.0614 -1.142251,-1.050335 -2.529324,-1.905301 -4.01923,-2.279073 -0.286652,-0.15367 -0.604236,-0.23354 -0.896461,-0.37443 -1.23481,-0.648187 -0.510648,-0.271545 2.921095,1.710356 0.09754,0.05633 -0.191423,-0.118766 -0.286612,-0.17898 -0.402717,-0.254748 -0.78068,-0.545367 -1.203386,-0.768061 -1.699413,-1.083726 -0.450858,-0.297387 -4.281622,-2.50407 -0.319993,-0.184327 -1.285219,-0.728022 -0.966431,-0.54162 1.243375,0.727024 4.097362,2.375693 2.426224,1.410078 -0.995892,-0.650343 -1.999247,-1.288952 -2.975986,-1.968259 -0.190886,-0.121026 -0.378195,-0.247896 -0.572664,-0.36308 -3.761935,-2.228183 -5.833956,-3.391802 -1.102939,-0.669332 0.171225,0.09853 -0.339886,-0.201459 -0.510966,-0.300244 -1.261605,-0.728491 -2.515267,-1.471023 -3.787063,-2.181569 -0.982552,-0.54895 1.946158,1.131144 2.91924,1.696717 -1.248661,-0.721008 -2.492319,-1.450753 -3.745984,-2.163027 -0.944779,-0.536779 1.876364,1.096518 2.819302,1.636527 0.172313,0.09868 -0.338426,-0.207827 -0.507217,-0.312422 -0.171931,-0.106543 -0.340272,-0.219014 -0.514953,-0.32099 -2.764859,-1.61412 -2.720181,-1.586677 -4.369157,-2.521056 -0.951299,-0.51698 -1.939118,-0.948923 -2.95973,-1.312431 -1.288433,-0.52555 -2.56159,-1.086273 -3.799117,-1.724091 -1.475949,-0.69029 -2.986199,-1.309497 -4.41924,-2.089444 -0.248098,-0.127815 -0.981626,-0.53027 -0.744287,-0.383442 0.813287,0.50314 3.306228,1.923926 2.473683,1.453332 -1.92251,-1.086696 -3.805764,-2.247286 -5.749317,-3.297594 z" />
    <path
       style="fill:#000000;stroke-width:0.264583"
       id="path35"
       d="m 97.671415,44.797497 c -0.05894,-1.015064 0.464547,-2.483698 0.554667,-3.496219 0.0531,-0.657257 0.227203,-1.294429 0.436515,-1.916851 0.357378,-0.672097 0.885623,-1.263711 1.388083,-1.833922 0.79634,-0.922695 1.58461,-1.859473 2.4837,-2.684907 0.45439,-0.470244 0.97753,-0.584758 1.60102,-0.628896 0.42678,-0.01675 0.8538,0.0031 1.28054,0.01106 0.35391,0.03166 0.73298,-0.05665 1.06818,0.07177 1.06745,0.937266 0.0964,0.06823 -3.06218,-1.70635 -0.0596,-0.03348 0.11144,0.07931 0.1645,0.122375 0.18989,0.154127 0.35897,0.331771 0.52916,0.506677 0.34218,0.345662 0.59341,0.757092 0.82441,1.181404 0.33279,0.643358 0.45273,1.35586 0.53016,2.067692 0.098,0.749491 -0.0901,1.469324 -0.33935,2.16948 -0.26116,0.687491 -0.57456,1.358723 -0.93031,2.002674 -0.23039,0.411805 -0.49426,0.792699 -0.82743,1.126781 -0.3192,0.326972 -0.7067,0.564491 -1.12193,0.748313 -0.64622,0.217839 -1.30408,0.219075 -1.97121,0.142132 -0.702697,-0.102296 -1.35575,-0.405689 -2.047596,-0.57448 -0.69021,-0.06776 -1.35737,-0.255301 -2.037826,-0.379283 -0.195363,-0.03921 -0.390416,-0.07007 -0.588743,-0.08708 1.053399,0.823575 1.509272,4.445855 2.799839,3.372082 l 0.177861,-0.224189 c 0.115579,-0.145685 0.595724,-0.140997 0.778562,-0.106867 0.667733,0.133191 1.240953,0.282179 1.907153,0.209484 0.6909,0.196157 1.42576,0.08864 2.15304,0.11474 0.71814,0.04137 1.44076,-0.02651 2.11306,-0.300392 0.43913,-0.230139 0.86282,-0.48537 1.19793,-0.858244 0.35677,-0.364408 0.63078,-0.787223 0.87876,-1.231763 0.33624,-0.674838 0.6444,-1.365287 0.91201,-2.070229 0.28709,-0.744607 0.54371,-1.505302 0.44258,-2.315925 -0.0699,-0.741055 -0.1657,-1.480484 -0.44108,-2.17828 -0.20324,-0.465354 -0.4643,-0.897985 -0.77464,-1.294077 -1.20364,-1.264613 -2.57973,-2.557542 -4.42039,-2.818881 -0.36908,-0.01363 -0.73841,-0.0087 -1.10762,-0.01786 -0.4317,-0.0067 -0.86476,-0.01074 -1.29403,0.04361 -0.67656,0.10812 -1.236699,0.338011 -1.697071,0.870787 -0.860965,0.873482 -1.640747,1.824669 -2.479259,2.719583 -0.550368,0.600805 -1.153327,1.200094 -1.535068,1.924841 -0.241609,0.649451 -0.353875,1.353703 -0.416467,2.040459 -0.08465,1.010073 -0.09711,3.193068 -0.127545,4.205797 z"
       sodipodi:nodetypes="ccccccccssccccccccccccsccccccccccccccccccc" />
    <path
       style="fill:#000000;stroke-width:0.264583"
       id="path36"
       d="m 107.8953,33.822621 c -0.0266,-0.648772 -0.0555,-1.297699 0.0526,-1.940055 0.0868,-0.571854 0.48972,-1.033811 0.83363,-1.479753 0.49869,-0.76735 1.1102,-1.431068 1.81026,-2.016316 0.57952,-0.512603 1.31324,-0.625499 2.05572,-0.69189 0.84396,0.05419 1.68238,0.232312 2.50012,0.445539 1.54394,0.34203 4.667,2.355512 -1.19644,-0.971648 0.63205,0.4976 1.11097,1.151996 1.48811,1.85628 0.42624,0.81189 0.65093,1.694701 0.80606,2.592057 0.16902,0.959035 0.14815,1.672092 -0.38051,2.505644 -0.46337,0.782965 -1.21421,1.043336 -2.06442,1.183505 -0.74848,0.09547 -1.50402,0.0865 -2.25671,0.07288 -0.55959,-0.0079 -1.11933,-0.01246 -1.67898,-0.01156 -0.60043,0.02724 -1.12438,-0.258435 -1.64708,-0.51471 -1.61383,-0.923679 1.73343,1.000276 2.60493,1.491983 0.11036,0.06227 -0.21324,-0.136954 -0.31987,-0.205407 -0.2821,-0.181099 -0.55511,-0.361624 -0.81793,-0.569857 -0.25707,-0.215495 -0.51554,-0.415901 -0.62562,-0.740053 -0.0885,-0.19477 -0.20107,-0.387961 -0.25895,-0.594629 -0.0349,-0.220832 -0.0516,-0.432935 -0.13438,-0.64306 -0.0685,-0.125981 -0.0389,-0.06161 -0.0894,-0.192894 0,0 -3.59345,-1.691362 -3.59345,-1.691362 v 0 c 0.0431,0.158461 0.0216,0.07682 0.0644,0.244991 0.11697,0.190394 0.19782,0.31093 0.17657,0.544295 0.0306,0.250291 0.11334,0.469472 0.22202,0.699154 0.13873,0.185094 0.0226,-7.94e-4 0.10244,0.265467 0.0826,0.275397 0.2929,0.457025 0.50125,0.639773 1.52627,1.347425 3.49394,2.149239 5.22117,3.181096 0.5679,0.254394 1.13455,0.444071 1.76748,0.393247 0.5616,0.0061 1.12321,0.01109 1.68482,0.01479 0.75656,-0.01003 1.51689,-0.03643 2.26432,-0.161515 0.93028,-0.209296 1.72973,-0.596895 2.23062,-1.451843 0.57187,-0.904764 0.70071,-1.697675 0.51312,-2.752704 -0.13511,-0.920464 -0.35033,-1.833253 -0.73071,-2.686061 -0.34753,-0.760282 -0.84224,-1.4371 -1.42605,-2.035042 -1.86277,-1.110218 -3.42841,-2.375177 -5.5153,-2.819519 -0.85524,-0.186913 -1.71908,-0.406463 -2.60163,-0.349122 -0.79656,0.118049 -1.56413,0.319935 -2.16053,0.898066 -0.7023,0.615683 -1.33117,1.309529 -1.8783,2.067176 -0.38438,0.491906 -0.83759,1.014482 -0.93904,1.645455 -0.10193,0.65864 -0.0925,1.316124 -0.10985,1.981303 z" />
    <path
       style="fill:#000000;stroke-width:0.264583"
       id="path37"
       d="m 91.657527,57.294953 c -0.693756,0.602975 -4.183627,2.802285 -4.88028,3.403971 -0.982197,0.880954 -2.035326,1.669635 -3.131405,2.401237 -0.667993,0.463695 -1.365289,0.873368 -1.995918,1.388266 -0.563902,0.350295 -1.063599,0.79592 -1.622656,1.15126 -0.380005,0.292751 -0.773284,0.563446 -1.132856,0.882367 -0.314735,0.307494 -0.668692,0.565274 -0.98449,0.86999 -0.406869,0.358304 -0.226904,0.80369 0.01992,1.195059 0.441907,0.531225 0.967536,0.99377 1.498005,1.43541 0.690927,0.535172 1.362609,1.093671 2.011285,1.679196 0.605962,0.576602 1.090872,1.262301 1.599875,1.92204 0.390694,0.59945 0.857242,1.136917 1.306623,1.690663 0.32388,0.421796 0.669058,0.826188 0.990682,1.249545 1.146189,1.53652 1.326391,1.154454 4.033602,2.734067 0.267978,-0.141372 0.451078,-0.429919 0.625004,-0.674955 0.372005,-0.480653 0.672084,-1.011558 0.999887,-1.523227 0.491226,-0.717373 0.887193,-1.491441 1.364441,-2.217822 0.503184,-0.690878 1.038153,-1.357887 1.559176,-2.0354 0.859716,-1.069438 1.767409,-2.098088 2.671778,-3.129664 0.566121,-0.580493 1.056333,-1.224198 1.55787,-1.859156 0.346022,-0.3766 0.699108,-0.749715 1.048742,-1.125466 0.294515,-0.317486 0.600509,-0.622879 0.949948,-0.878591 0.15038,-0.09076 0.28615,-0.202689 0.42709,-0.306985 l -3.343771,-2.114939 v 0 c -0.141213,0.107341 -0.286872,0.208161 -0.426617,0.317444 -0.34645,0.288068 -0.669477,0.599358 -0.964162,0.940925 -0.359151,0.381825 -0.738855,0.748723 -1.06353,1.159557 -0.481888,0.636111 -0.939297,1.29046 -1.474057,1.885204 -0.889924,1.048811 -1.786874,2.091211 -2.682632,3.13499 -0.571653,0.658659 -1.133332,1.327785 -1.633268,2.043297 -0.460523,0.734534 -0.847116,1.514105 -1.342546,2.226887 -0.332697,0.499219 -0.680516,0.989359 -1.049438,1.462162 -0.03112,0.03843 -0.247782,0.351893 -0.306411,0.348924 -0.03631,-0.0019 0.02389,-0.129669 -0.0536,-0.09501 4.343498,2.593689 3.882652,2.747216 2.727587,1.262938 -0.336987,-0.425278 -0.664419,-0.853141 -1.023906,-1.259469 -0.417235,-0.585912 -0.956233,-1.071774 -1.31703,-1.702205 -0.527672,-0.658709 -1.006951,-1.355696 -1.575167,-1.980687 -0.643025,-0.596627 -1.309688,-1.164923 -2.002047,-1.703845 -0.534625,-0.408215 -1.003038,-0.880165 -1.507487,-1.32235 -0.05328,-0.06489 -0.408721,-0.403027 -0.391957,-0.51353 0.0065,-0.04304 0.12142,-0.157303 0.136967,-0.174329 0.302773,-0.301019 0.646152,-0.559583 0.952394,-0.857718 0.360855,-0.294296 0.741331,-0.561679 1.107615,-0.848934 0.538803,-0.392594 1.057793,-0.812808 1.610513,-1.18708 0.6418,-0.472204 1.294114,-0.929026 1.938306,-1.397902 1.086549,-0.76563 2.138542,-1.576983 3.15836,-2.429825 0.712912,-0.588206 4.102991,-2.795136 4.855691,-3.331269 z"
       sodipodi:nodetypes="ccccccccccccccccccccccccsccccccccccccccccccccccccc" />
    <path
       style="fill:#000000;stroke-width:0.264583"
       id="path38"
       d="m 122.71585,34.323184 c 1.26818,0.433062 3.71952,1.877867 -1.76213,-1.137981 -0.16536,-0.09098 0.31905,0.202276 0.47133,0.313782 0.16817,0.123148 0.32611,0.259697 0.48917,0.389544 1.05876,0.997151 2.20519,1.893091 3.32921,2.813854 0.87509,0.666134 1.71137,1.379262 2.42698,2.215891 0.51026,0.690149 0.94248,1.43302 1.38435,2.167578 0.46947,0.82351 0.86719,1.684139 1.29017,2.531604 0.48338,0.968875 1.05294,1.889213 1.53542,2.858334 0.44788,0.875011 0.81633,1.782968 1.13822,2.710383 0.31133,0.776245 0.55024,1.572062 0.6729,2.399216 0.0918,0.769709 0.0944,1.546703 0.094,2.320819 0.0293,0.661604 -0.022,1.307631 -0.14806,1.956054 -0.10895,0.617794 -0.30689,1.206852 -0.50209,1.799994 -0.1008,0.365705 -0.27864,0.697823 -0.46662,1.023642 -0.23587,0.347554 -0.4374,0.710602 -0.6341,1.081682 -0.25776,0.5699 -0.50542,1.147641 -0.72288,1.734434 -0.15347,0.457227 -0.28051,0.914503 -0.48304,1.352997 -0.0823,0.170675 -0.14081,0.349459 -0.22456,0.519832 l 3.44362,1.95725 v 0 c 0.0863,-0.176289 0.16818,-0.351022 0.23019,-0.537146 0.18734,-0.455824 0.32093,-0.91757 0.45385,-1.392084 0.21735,-0.566534 0.46226,-1.124419 0.7103,-1.677699 0.20575,-0.362223 0.42785,-0.709957 0.65015,-1.061458 0.20431,-0.349158 0.39416,-0.712208 0.49329,-1.107403 0.18722,-0.609881 0.3735,-1.214327 0.49107,-1.843524 0.17448,-0.67124 0.23181,-1.341086 0.1887,-2.03476 -0.005,-0.790014 -0.003,-1.581065 -0.0738,-2.368725 -0.10728,-0.853908 -0.31879,-1.678061 -0.65239,-2.474211 -0.3242,-0.945361 -0.68257,-1.876687 -1.14867,-2.763374 -0.45073,-0.986505 -1.02658,-1.902958 -1.52596,-2.864792 -0.43448,-0.838203 -0.79502,-1.711651 -1.24898,-2.539916 -0.43928,-0.7577 -0.90493,-1.498171 -1.38548,-2.230437 -0.68789,-0.896414 -1.53264,-1.648415 -2.44812,-2.309521 -1.11706,-0.913813 -2.27379,-1.786494 -3.30665,-2.797019 -1.683,-1.527503 -4.03813,-2.844119 -6.21195,-3.504784 z"
       sodipodi:nodetypes="csscccccccccccccccccsccccccccccccccccc" />
    <path
       style="fill:#000000;stroke-width:0.264583"
       id="path39"
       d="m 99.458826,65.469562 c 0.735184,0.528688 3.914854,2.039028 4.665924,2.545136 2.05233,1.362245 4.18435,2.581466 6.47281,3.478512 0.91239,0.223501 1.82615,0.407514 2.71859,0.702228 0.60566,0.169624 1.19883,0.353242 1.81724,0.471916 0.91172,0.141293 1.8163,0.310422 2.7239,0.477552 0.6921,0.120922 1.36208,0.322582 2.0607,0.413856 0.67975,0.06516 1.36433,0.05985 2.04654,0.05725 0.86619,0.03068 1.70625,-0.203522 2.5481,-0.371115 0.68165,-0.172191 1.38937,-0.26471 2.06185,-0.47004 0.55688,-0.140248 1.10707,-0.268325 1.63964,-0.487188 0.50689,-0.174863 0.97662,-0.417449 1.44579,-0.671925 0.45828,-0.263692 0.90549,-0.56374 1.2837,-0.934868 0.35882,-0.326938 0.61301,-0.743072 0.90114,-1.129377 0.21491,-0.295344 0.42128,-0.594971 0.62773,-0.896718 0.21617,-0.452321 0.46758,-0.885364 0.74822,-1.300456 0.27303,-0.366099 0.51292,-0.760484 0.6854,-1.183701 0.13755,-0.402558 0.25509,-0.821089 0.47217,-1.189397 0.22128,-0.313481 0.36033,-0.67046 0.46079,-1.038294 0.0161,-0.09865 0.0323,-0.197305 0.0484,-0.29596 l -3.47159,-1.839955 v 0 l -0.0414,0.256381 c -0.0867,0.341588 -0.23481,0.647888 -0.4221,0.945822 -0.20991,0.391827 -0.35786,0.814851 -0.48943,1.238369 -0.15645,0.398539 -0.393,0.763778 -0.62939,1.119082 -0.28041,0.415028 -0.53551,0.850463 -0.7814,1.285126 -0.19256,0.300757 -0.3917,0.596003 -0.59347,0.890175 -0.27701,0.367202 -0.5227,0.760571 -0.8682,1.070237 -0.37068,0.333399 -0.78101,0.630692 -1.22849,0.852112 -0.44983,0.25088 -0.92331,0.445772 -1.40331,0.631743 -0.5332,0.179046 -1.07772,0.308959 -1.61916,0.4598 -0.67179,0.166815 -1.34821,0.315109 -2.02418,0.463984 -0.82461,0.176014 -1.65384,0.350626 -2.50331,0.302525 -0.67867,-0.01151 -1.36074,-0.0145 -2.0333,-0.11693 -0.67878,-0.116359 -1.34206,-0.30611 -2.02469,-0.402222 -0.91648,-0.166892 -1.83798,-0.307306 -2.74795,-0.506778 -0.60077,-0.133247 -1.18507,-0.33206 -1.77909,-0.49199 -0.8841,-0.261816 -1.80249,-0.390803 -2.67164,-0.703614 -0.51058,-0.208701 -1.02324,-0.417341 -1.51648,-0.665285 -0.18158,-0.09128 -0.7118,-0.392358 -0.53697,-0.288739 4.53611,2.688539 3.33248,1.957091 2.21176,1.270923 -0.73286,-0.476874 -1.42443,-1.010335 -2.14779,-1.500574 z"
       sodipodi:nodetypes="cccccccccccccccccccccccccccccccccccccccscccc" />
    <path
       style="fill:#000000;stroke-width:0.264583"
       id="path40"
       d="m 117.23489,72.928143 c 0.2856,0.481473 0.60933,0.939903 0.9306,1.398222 0.52877,0.784035 1.00062,1.603817 1.459,2.430352 0.58549,1.051621 1.1435,2.119161 1.74738,3.160294 0.75633,1.211694 1.51183,2.42788 2.36418,3.574997 0.6194,0.84513 1.1696,1.736209 1.72733,2.622098 0.47447,0.740153 0.89915,1.510326 1.36491,2.256028 0.53537,0.775361 1.01426,1.584888 1.45741,2.415783 0.60576,1.250588 1.23622,2.488761 1.89347,3.713102 0.58689,1.087313 1.17342,2.174695 1.76757,3.258095 0.50068,0.822378 0.88149,1.706406 1.27764,2.581266 0.41907,0.89756 0.90875,1.76002 1.34731,2.64872 0.43832,0.98858 0.88733,1.97013 1.25884,2.98609 0.36166,0.97508 0.81942,1.91149 1.24489,2.85997 0.41843,0.92896 0.79875,1.87445 1.20489,2.80903 0.3188,0.72089 0.57552,1.46701 0.88573,2.19104 0.26864,0.53894 0.53143,1.08007 0.76687,1.63439 0,0 3.60221,1.61648 3.60221,1.61648 v 0 c -0.33694,-0.49604 -0.47965,-1.12245 -0.82053,-1.62299 -0.32253,-0.72577 -0.58633,-1.4749 -0.90826,-2.2012 -0.40977,-0.93776 -0.81865,-1.87464 -1.20951,-2.82038 -0.4422,-0.93057 -0.85896,-1.876 -1.25784,-2.8253 -0.35087,-1.04417 -0.83571,-2.02732 -1.27161,-3.03743 -0.40658,-0.88625 -0.86546,-1.7468 -1.29154,-2.62193 -0.43195,-0.87876 -0.79848,-1.79152 -1.31532,-2.627036 -0.61213,-1.079707 -1.18521,-2.180757 -1.78905,-3.265096 -0.6775,-1.20492 -1.29778,-2.441056 -1.88069,-3.694393 -0.4087,-0.839113 -0.86153,-1.657101 -1.37943,-2.434455 -0.52776,-0.713909 -0.92017,-1.517486 -1.40296,-2.26142 -0.58174,-0.888778 -1.11131,-1.809205 -1.74403,-2.664812 -0.88356,-1.113115 -1.64231,-2.317155 -2.38388,-3.528269 -0.59787,-1.043482 -1.16636,-2.103779 -1.75666,-3.151701 -0.42681,-0.821938 -0.86953,-1.639784 -1.36075,-2.424342 -0.28389,-0.460672 -0.62338,-0.890543 -0.91908,-1.342338 z" />
    <path
       style="fill:#000000;stroke-width:0.264583"
       id="path41"
       d="m 133.24512,51.866138 c 0.52776,0.892794 1.08914,1.76463 1.59197,2.671889 0.7976,1.565257 1.41879,3.210232 2.11888,4.819328 0.44397,1.143407 1.01599,2.225637 1.62906,3.285344 0.67475,1.122138 1.31481,2.264719 1.96827,3.399359 0.68543,1.270822 1.34407,2.561222 1.92238,3.884961 0.5103,1.192311 0.97133,2.403436 1.54126,3.569126 0.42529,1.04656 1.00211,2.012389 1.60494,2.963617 0.56231,0.837898 1.09683,1.687713 1.53199,2.598449 0.56932,1.361448 1.10973,2.735601 1.61102,4.123589 0.40273,1.148456 0.89758,2.260865 1.34756,3.390778 0.36781,1.002208 0.68425,2.019025 1.08305,3.010189 0.34185,0.925854 0.7665,1.817121 1.1983,2.703486 0.48199,1.0365 0.98907,2.060606 1.48192,3.091915 0.44606,0.886516 0.89829,1.770023 1.31874,2.66917 0.39177,0.897324 0.78403,1.79452 1.19348,2.683962 0.2247,0.5359 0.48658,1.05258 0.7616,1.5636 0.24743,0.43235 0.50713,0.85729 0.77085,1.27988 0.37773,0.57543 0.70394,1.18324 1.02056,1.79389 0.16279,0.38188 0.45346,0.68312 0.65237,1.04275 0.20688,0.27885 0.33302,0.59447 0.54658,0.8687 0.13172,0.21057 0.29957,0.40576 0.37926,0.6433 0.0351,0.17073 0.0423,0.32517 0.18372,0.44513 0.0529,0.0929 0.03,0.0464 0.0695,0.13911 0,0 3.60268,1.69002 3.60268,1.69002 v 0 c -0.0325,-0.12035 -0.0155,-0.0576 -0.0508,-0.18829 -0.0485,-0.23765 -0.20222,-0.16399 -0.21707,-0.37043 -0.0587,-0.29526 -0.15785,-0.54281 -0.34727,-0.78363 -0.089,-0.14306 -0.24752,-0.26253 -0.32267,-0.40773 -0.0759,-0.14658 -0.097,-0.32997 -0.21301,-0.46062 -0.21384,-0.23088 -0.007,0.0184 -0.18092,-0.28799 -0.105,-0.18448 -0.26897,-0.32279 -0.39104,-0.49117 -0.0523,-0.0721 -0.0886,-0.15446 -0.1329,-0.23168 -0.33414,-0.60784 -0.65106,-1.22554 -1.00757,-1.82112 -0.26627,-0.40902 -0.50032,-0.83814 -0.76193,-1.24871 -0.28982,-0.51337 -0.59343,-1.01467 -0.81369,-1.56454 -0.44553,-0.87423 -0.84165,-1.77446 -1.21049,-2.68339 -0.41385,-0.909399 -0.87218,-1.796878 -1.33075,-2.683809 -0.50681,-1.018727 -1.0175,-2.034502 -1.46853,-3.079646 -0.40775,-0.901724 -0.90135,-1.762424 -1.23981,-2.695382 -0.38236,-0.991902 -0.72885,-1.993495 -1.06132,-3.002598 -0.4583,-1.136885 -0.98384,-2.245616 -1.40081,-3.399303 -0.49091,-1.391467 -1.06874,-2.749068 -1.5733,-4.135784 -0.38011,-0.952053 -0.90071,-1.814184 -1.49814,-2.647783 -0.60121,-0.944488 -1.22207,-1.882516 -1.63031,-2.93189 -0.59315,-1.159132 -1.07003,-2.361727 -1.57569,-3.560501 -0.56652,-1.338175 -1.23656,-2.63177 -1.90417,-3.921204 -0.62495,-1.139434 -1.29472,-2.253687 -1.92505,-3.390273 -0.6427,-1.05256 -1.2411,-2.136418 -1.71829,-3.275081 -0.71652,-1.597374 -1.36592,-3.223385 -2.06706,-4.827418 -0.46369,-0.896901 -1.01679,-1.7443 -1.47656,-2.641222 z" />
    <path
       style="fill:#000000;stroke-width:0.264583"
       id="path42"
       d="m 163.99828,111.13074 c -1.36237,-0.22814 -2.74864,-0.2967 -4.12758,-0.34569 -1.84115,-0.0453 -3.68288,-0.0551 -5.5245,-0.0612 -2.10885,0.0295 -4.21792,0.0264 -6.32682,0.005 -1.56226,-0.0599 -3.11002,-0.0199 -4.64888,0.26147 -1.45168,0.27222 -2.78888,0.84284 -4.03168,1.62661 -1.00151,0.691 -1.79731,1.54481 -2.39876,2.59566 -0.52767,1.14239 -0.68312,2.39317 -0.79389,3.63237 -0.0518,0.70841 -0.13217,1.4267 0.0555,2.12407 0.11849,0.44038 0.27224,0.71894 0.46568,1.13021 0.613,1.1125 1.40377,2.11735 2.23483,3.07368 0.58041,0.58973 1.24157,1.08929 1.9643,1.49236 2.96749,1.65494 3.41497,2.10838 5.94678,2.82705 1.98636,0.56946 4.0359,0.70176 6.08706,0.79957 1.54222,-0.0415 3.12819,0.23767 4.66011,-0.0529 0.28739,-0.0545 0.56564,-0.14938 0.84845,-0.22406 1.60539,-0.49455 3.17728,-1.08852 4.6603,-1.87945 0.91939,-0.44002 1.80584,-1.02383 2.50079,-1.7795 0.45013,-0.48947 0.57859,-0.75433 0.92528,-1.31291 0.75434,-1.45698 1.126,-3.0337 1.48626,-4.61895 0.3111,-1.16505 0.66481,-2.31842 0.95428,-3.48915 0.22064,-1.21873 0.23113,-2.45918 0.17388,-3.69219 -0.11169,-1.18706 -0.50571,-1.89284 -1.25728,-2.78588 -0.31156,-0.33286 -0.62212,-0.66661 -0.95377,-0.97959 0,0 -3.64547,-1.4803 -3.64547,-1.4803 v 0 c 0.36856,0.29584 0.69178,0.62891 1.02949,0.95889 0.78239,0.81474 1.2034,1.4187 1.38794,2.56123 0.0925,1.19615 0.0765,2.39605 -0.14874,3.57913 -0.25674,1.18507 -0.59226,2.35213 -0.88171,3.52948 -0.35538,1.54017 -0.68785,3.09426 -1.43417,4.50521 -0.13026,0.21198 -0.24609,0.43354 -0.39079,0.63594 -0.73616,1.02976 -1.81027,1.73365 -2.93061,2.28299 -1.46031,0.76039 -2.99595,1.37777 -4.58489,1.81422 -0.27867,0.0577 -0.5547,0.12996 -0.83601,0.17293 -1.50907,0.2305 -3.05583,0.0474 -4.57154,0.0467 -2.04197,-0.10267 -4.08252,-0.29781 -6.05128,-0.88497 -0.30684,-0.0952 -0.61717,-0.17992 -0.92052,-0.28575 -0.3057,-0.10664 -1.16382,-0.54654 -0.90556,-0.35128 0.74144,0.5606 1.59038,0.96297 2.37459,1.46199 0.2453,0.1561 -0.51208,-0.27659 -0.75728,-0.43284 -0.22347,-0.1424 -0.43823,-0.29869 -0.64692,-0.46197 -0.18739,-0.14661 -0.36005,-0.31115 -0.54008,-0.46672 -0.85148,-0.9122 -1.6165,-1.91529 -2.27537,-2.97481 -0.14968,-0.29366 -0.38073,-0.719 -0.48888,-1.03655 -0.22405,-0.65786 -0.14486,-1.35247 -0.12122,-2.03238 0.0825,-1.18503 0.21212,-2.39078 0.737,-3.4739 0.54755,-1.0018 1.31044,-1.81002 2.25865,-2.45282 1.2172,-0.73845 2.52079,-1.28079 3.93366,-1.51638 1.51987,-0.2474 3.04472,-0.23914 4.58147,-0.23011 2.11093,-0.0242 4.22208,-0.0298 6.33299,2.1e-4 1.83853,-1.3e-4 3.67802,-0.004 5.51524,0.0748 1.40393,0.0769 2.84168,0.11708 4.19522,0.53062 z" />
    <path
       style="fill:#000000;stroke-width:0.264583"
       id="path43"
       d="m 142.31893,127.38496 c 0.19183,1.31467 0.37569,4.36459 0.49004,5.68894 0.11368,1.48239 0.13851,2.96978 0.14236,4.45594 0.004,1.4707 0.12866,2.93832 0.18797,4.40786 0.0419,1.10922 0.0681,2.2186 0.0886,3.3284 0.0144,1.19652 0.0117,2.39278 -0.0869,3.58568 -0.15848,1.21875 -0.3717,2.43156 -0.60962,3.63731 -0.23052,0.89334 -0.37161,1.79439 -0.43349,2.71348 -0.10208,0.79028 -0.20848,1.5799 -0.27925,2.37389 -0.0338,0.37449 -0.0746,0.74833 -0.0793,1.12457 0.005,0.31564 0.004,0.63131 6e-5,0.94695 -0.0695,0.18454 -0.15825,0.36425 -0.2128,0.55887 -0.008,0.033 -0.0165,0.066 -0.0248,0.099 l 3.5044,1.87775 v 0 c 0.005,-0.0293 0.01,-0.0586 0.0144,-0.088 0.0489,-0.23311 0.17088,-0.42608 0.25272,-0.64814 -0.005,-0.31422 -0.009,-0.62853 -0.002,-0.94276 0.002,-0.37546 -0.003,-0.75118 0.0186,-1.12627 0.0506,-0.80051 0.14492,-1.59525 0.26272,-2.3886 0.0516,-0.90587 0.1775,-1.80179 0.37092,-2.68886 0.23758,-1.21753 0.44332,-2.44204 0.64294,-3.66628 0.11087,-1.21048 0.0816,-2.41759 0.0725,-3.63271 0.0105,-1.11272 0.0308,-2.2279 -0.0635,-3.33784 -0.10524,-1.46705 -0.22976,-2.93514 -0.22833,-4.40703 -0.0159,-1.49349 -0.009,-2.98823 -0.11952,-4.47874 -0.11352,-1.29026 0.0857,-4.30968 -0.005,-5.60103 -1.17269,-1.42388 -2.73122,-0.61616 -3.90391,-1.79238 z"
       sodipodi:nodetypes="ccccccccccccccsccccccccccccc" />
    <path
       style="fill:#000000;stroke-width:0.264583"
       id="path44"
       d="m 162.86072,126.83883 c 0.0455,1.14769 0.24736,2.2813 0.3851,3.41989 0.26205,1.89457 0.55843,3.78432 0.80937,5.68049 0.19262,1.49324 0.2612,2.99788 0.29509,4.50182 0.006,1.98886 -0.11748,3.97618 -0.28508,5.95722 -0.12537,1.78357 -0.22479,3.5688 -0.26073,5.3565 -0.057,1.31043 0.006,2.62535 -0.0807,3.93407 -0.0739,0.74227 -0.19094,1.47863 -0.24346,2.22284 -0.0733,0.6369 -0.19182,1.26741 -0.26797,1.90408 -0.0455,0.34112 -0.0597,0.68558 -0.0673,1.02934 0,0 3.51897,1.80004 3.51897,1.80004 v 0 c 0.003,-0.33638 0.007,-0.67282 0.0331,-1.00841 0.0557,-0.64542 0.14873,-1.28555 0.26625,-1.92266 0.0414,-0.75217 0.12495,-1.50063 0.18972,-2.25098 0.0769,-1.32449 -0.007,-2.65326 0.0287,-3.9793 0.0328,-1.78442 0.0647,-3.57037 0.2241,-5.34913 0.15483,-1.99051 0.22738,-3.98419 0.32462,-5.97824 -0.0154,-1.52157 -0.0344,-3.0437 -0.28608,-4.54938 -0.27884,-1.88248 -0.60449,-3.75842 -0.77916,-5.65495 -0.1198,-1.10342 -0.31559,-2.20859 -0.2868,-3.32086 z" />
    <path
       style="fill:#000000;stroke-width:0.264583"
       id="path45"
       d="m 84.390221,43.344353 c -0.551003,-0.03143 -1.075836,0.04587 -1.610106,0.168199 -0.329486,0.133506 -0.702114,0.238392 -1.006247,0.427188 -0.240081,0.160636 -0.469027,0.352351 -0.6222,0.598606 -0.06484,0.228849 -0.208055,0.412856 -0.313698,0.620694 -0.08814,0.16691 -0.129288,0.344118 -0.151487,0.529778 -0.01492,0.213045 -0.0039,0.426207 -0.0032,0.639406 -0.0026,0.305546 -0.0094,0.609639 0.05902,0.908714 0.09991,0.379394 0.369461,0.67904 0.581824,1.00108 0.201398,0.323421 0.427535,0.613582 0.733877,0.84137 1.314995,0.883388 2.821983,1.666909 4.141018,2.405914 1.073613,0.601504 -2.13333,-1.227497 -3.202845,-1.836259 -0.06044,-0.0344 0.116912,0.07536 0.175369,0.113036 3.866917,3.31761 2.270336,1.610256 4.039507,2.120934 0.214744,0.06199 0.412729,0.163565 0.633246,0.219445 0.41424,0.09811 0.863216,0.172083 1.279644,0.06721 0.389271,-0.108442 0.780561,-0.256865 1.116166,-0.483854 0.3947,-0.235715 0.716042,-0.607494 0.988597,-0.974675 0.343993,-0.42637 0.486892,-0.947234 0.628393,-1.464654 0.152324,-0.428455 0.2491,-0.868598 0.30874,-1.318225 0.05506,-0.345247 0.02633,-0.676937 -0.09922,-1.002001 -0.09949,-0.287875 -0.27596,-0.54987 -0.448741,-0.800529 -0.159448,-0.162136 -0.308184,-0.41162 -0.505375,-0.528034 -1.024099,-1.169143 -2.609647,-1.705859 -4.015992,-2.373003 -0.226983,-0.09787 -0.490725,-0.18425 -0.741775,-0.17857 -0.261501,0.0099 -0.523314,0.0038 -0.784955,0.0072 -0.182317,-0.0019 -0.36462,5.3e-4 -0.546923,-0.0013 -0.08695,-0.0013 -0.607339,0.320574 -0.704826,0.322138 l 3.233,2.313124 0.759623,-0.540748 c 0.08212,-0.05846 0.1315,0.156399 -0.06638,0.244413 0.178702,-0.0029 0.357415,-0.0024 0.536117,-0.0059 0.252449,0.0024 0.508458,-0.0086 0.757031,0.04265 0.22348,0.07754 0.450884,0.140245 0.659024,0.257101 1.349145,0.582756 1.641689,0.963009 -2.9801,-1.782596 -0.02807,-0.01667 0.06905,-0.0048 0.09723,0.01169 0.06164,0.03602 0.06146,0.14065 0.127635,0.172014 0.182147,0.262649 -0.04176,-0.008 0.17585,0.125603 0.141541,0.08692 0.161864,0.329758 0.359454,0.343389 0.178787,0.222856 0.327436,0.466537 0.501328,0.684316 0.08239,0.294973 0.270277,0.531169 0.186028,0.857467 -0.03433,0.431453 -0.115742,0.854834 -0.257326,1.265017 -0.147695,0.46749 -0.227208,0.958123 -0.567195,1.33816 -0.251354,0.331713 -0.54719,0.640493 -0.91744,0.838832 -0.323501,0.163507 -0.656759,0.310571 -1.021096,0.350676 -0.400756,-0.01161 -0.796488,-0.06581 -1.177901,-0.194709 -1.459182,-0.494991 -3.853339,-1.359046 2.131454,1.488069 -2.242658,-1.247362 -7.179026,-4.145293 -0.551426,-0.318823 0.524275,0.302694 -1.08677,-0.713917 -0.572034,-0.326869 -0.298151,-0.219125 -0.609296,-0.379595 -0.790975,-0.723905 -0.211693,-0.292896 -0.404651,-0.599583 -0.615159,-0.88773 -0.113995,-0.264943 -0.12392,-0.508722 -0.106478,-0.797533 -7.94e-4,-0.202261 0.0051,-0.404442 0.0034,-0.606706 0.0016,-0.137993 0.0067,-0.268909 0.06887,-0.396158 0.09574,-0.196837 0.243073,-0.368787 0.290563,-0.586782 0.123629,-0.184597 0.315021,-0.317693 0.503184,-0.430131 0.308727,-0.12533 0.609849,-0.275846 0.93675,-0.347924 0.51894,-0.112556 1.040521,-0.119102 1.570148,-0.0902 z"
       sodipodi:nodetypes="ccccccccccsscscccccccccccccccsccccsccscccccccccsccccccccccc" />
    <path
       style="fill:#000000;stroke-width:0.264583"
       id="path46"
       d="m 97.757749,47.184196 c -0.655365,0.244342 -1.242328,0.610679 -1.832166,0.979802 -0.724686,0.4547 -1.301168,1.097333 -1.793626,1.78875 -0.270653,0.438221 -0.633473,0.82324 -0.801079,1.315577 -0.107304,0.335608 -0.09608,0.689898 -0.09343,1.037937 -0.01175,0.592449 0.03777,1.175207 0.129405,1.759672 0.05286,0.431186 0.177057,0.842399 0.437878,1.192355 0.144521,0.2315 0.29778,0.456915 0.462129,0.67478 0.270777,0.28384 0.492318,0.60139 0.811281,0.832036 3.205091,1.992667 3.092961,2.094798 5.825119,2.275136 0.50302,-0.0028 1.0374,0.127219 1.52623,-0.02111 0.46394,-0.114914 0.72313,-0.525812 0.978,-0.895683 0.42554,-0.688142 0.52902,-1.478034 0.68558,-2.253867 0.17998,-0.832048 0.26677,-1.678527 0.3243,-2.526553 0.0247,-0.849437 0.0262,-1.6993 0.0332,-2.549015 -0.0171,-0.558959 0.0595,-1.122995 -0.0363,-1.67682 -0.055,-0.311637 -0.20139,-0.542857 -0.42336,-0.757738 -1.08139,-1.029552 -2.50383,-2.137373 -4.027113,-2.179725 l 2.018213,1.8339 1.27021,0.599822 c 0.0798,0.03769 0.049,0.01461 0.12697,0.05553 0.0306,0.01609 0.12081,0.06764 0.0908,0.0503 -3.31342,-1.917494 -1.62689,-1.66608 -3.15286,-1.857867 0.19758,0.163285 0.45749,0.296558 0.52512,0.556937 0.20934,0.507357 0.0989,1.067231 0.13196,1.604415 0.007,0.842833 0.0128,1.686264 -0.0258,2.528491 -0.0359,0.833225 -0.1046,1.665978 -0.28583,2.482085 -0.14969,0.717825 -0.21998,1.468355 -0.65323,2.087404 -0.220329,0.306363 -0.410755,0.597643 -0.820195,0.634701 -0.473726,0.01714 -0.94843,-0.0081 -1.421818,-0.02458 -0.448775,-0.02844 -0.896979,-0.05869 -1.340059,-0.140555 -1.415229,-0.261479 -3.208305,-1.576919 2.324963,1.590104 -0.442907,-0.206121 -0.519515,-0.342652 -0.830265,-0.701932 -0.188751,-0.188153 -0.353777,-0.405963 -0.49157,-0.633238 -0.211166,-0.354547 -0.519564,-0.595095 -0.530463,-1.057725 -0.114395,-0.560117 -0.194656,-1.114933 -0.143608,-1.688761 0.0016,-0.310044 -0.01151,-0.623874 0.04478,-0.930161 0.119261,-0.459531 0.455946,-0.832631 0.693669,-1.233731 0.458237,-0.659085 1.006922,-1.249341 1.708356,-1.655199 0.586724,-0.354491 1.17774,-0.694899 1.83892,-0.895064 0.4772,-1.082796 -2.189541,-1.466939 -3.284311,-2.200408 z"
       sodipodi:nodetypes="cccccccccccccccccccsccccccccccscccccccccc" />
    <path
       style="fill:#000000;stroke-width:0.264583"
       id="path47"
       d="m 135.99936,73.018366 c -0.67875,-0.04169 -1.28869,0.163161 -1.8317,0.563372 -0.46546,0.356926 -0.74683,0.846555 -1.02267,1.350182 -0.26622,0.409427 -0.42186,0.84923 -0.47918,1.330891 -0.0407,0.540692 -0.0406,1.08336 -0.0514,1.625201 0.0114,0.575672 -0.0208,1.150191 0.10393,1.714764 0.15245,0.427117 0.38403,0.860497 0.7978,1.091105 3.78147,2.107536 2.41571,1.826053 4.39122,2.13909 1.47842,0.107413 2.79187,-0.283149 4.01986,-1.083641 0.93593,-0.681858 1.48946,-1.655548 1.99077,-2.669087 0.3192,-0.662898 0.45564,-1.380305 0.44698,-2.111489 -0.0153,-0.557763 -0.15397,-1.064654 -0.48037,-1.516624 -1.01204,-1.085172 -3.13432,-1.962859 -3.96035,-2.424138 -0.35718,-0.199459 0.0469,0.171709 -0.22868,-0.10635 7.12729,4.253482 0.74044,0.143082 -1.43683,-0.876252 0,0 3.07421,2.453203 3.07421,2.453203 v 0 c 2.45531,1.237838 -4.00886,-2.577944 -2.26221,-1.330306 0.0718,0.05128 0.13001,0.121147 0.20548,0.166833 1.16256,0.703694 2.33757,1.386612 3.50635,2.079919 0.0815,0.02111 0.30458,0.142576 0.23163,0.100578 -5.78247,-3.329038 -3.99534,-2.3236 -2.75997,-1.601584 0.37674,0.371976 0.57832,0.753849 0.61234,1.294649 0.0648,0.66924 -0.0755,1.336487 -0.32991,1.956604 -0.43262,0.965539 -0.95225,1.881048 -1.83581,2.507263 -1.17282,0.717471 -2.48437,1.072555 -3.86289,0.833665 -1.69654,-0.431516 -0.50449,-0.186293 2.31909,1.588646 0.10597,0.06662 -0.24283,-0.07199 -0.34934,-0.137731 -0.23682,-0.146175 -0.40966,-0.43955 -0.54201,-0.67201 -0.19802,-0.522044 -0.14116,-1.056714 -0.1358,-1.606561 -0.012,-0.529561 -0.016,-1.060257 0.023,-1.588878 0.0464,-0.43021 0.16233,-0.828675 0.39784,-1.198047 0.25297,-0.445034 0.49495,-0.895781 0.92572,-1.19788 0.5288,-0.33224 1.09885,-0.409273 1.71691,-0.354772 z" />
    <path
       style="fill:#000000;stroke-width:0.264583"
       id="path48"
       d="m 145.15967,94.413516 c -0.70007,0.106849 -1.37426,0.287523 -2.00846,0.604705 -0.6629,0.316717 -1.05754,0.78649 -1.50802,1.336913 -0.39194,0.599633 -0.69753,1.247288 -0.88288,1.938819 -0.20671,1.051018 0.24938,2.008237 0.75141,2.901647 0.39304,0.70257 0.85646,1.33801 1.51657,1.80405 2.56735,1.47478 3.03169,2.24701 5.35767,2.449 1.26517,0.002 2.53267,-0.22923 3.71628,-0.67273 0.85345,-0.27025 1.46389,-0.86659 1.93028,-1.606 0.47903,-1.24783 0.52874,-2.63849 0.38799,-3.955545 -0.48045,-2.850155 -1.54233,-2.556989 -4.54553,-4.323818 -0.73227,-0.248031 -1.50126,-0.337841 -2.2657,-0.426061 -0.3084,-0.0424 -0.61862,-0.05612 -0.92939,-0.06329 0,0 3.20795,2.342068 3.20795,2.342068 v 0 c 0.288,0.0067 0.57515,0.03103 0.86182,0.05868 0.74099,0.0863 1.49812,0.194852 2.16547,0.549039 -7.62601,-4.509106 -2.97131,-2.044557 -2.44388,-1.289135 0.29656,0.424749 0.40403,0.964253 0.5113,1.457415 0.19531,1.223315 0.16669,2.526347 -0.32109,3.682727 -0.43874,0.66757 -0.98442,1.16855 -1.76504,1.41246 -1.15456,0.41225 -2.38224,0.63777 -3.61077,0.52352 -0.38954,-0.0614 -0.57518,-0.0738 -0.93916,-0.18854 -1.3138,-0.41403 -3.47102,-2.17915 2.33918,1.46649 -0.72275,-0.38499 -1.246,-0.94028 -1.64728,-1.65893 -0.50088,-0.76838 -0.98968,-1.64888 -0.82764,-2.59746 0.14748,-0.644909 0.41111,-1.248616 0.79327,-1.791581 0.39929,-0.491998 0.81229,-0.930394 1.40717,-1.191826 0.61626,-0.264552 1.27383,-0.444236 1.94954,-0.436923 z" />
    <path
       style="fill:#000000;stroke-width:0.264583"
       id="path49"
       d="m 153.14814,139.77663 c -0.73777,0.0251 -1.47629,0.0185 -2.21436,0.014 -0.8068,-0.0485 -1.52921,0.28422 -2.18783,0.71554 -0.84201,0.57923 -1.28172,1.46267 -1.675,2.37656 -0.30202,0.76997 -0.41693,1.59689 -0.45138,2.41879 -0.0155,0.82508 0.22155,1.58565 0.56428,2.32474 0.36938,0.72038 0.97425,1.27556 1.6719,1.67665 1.24099,0.71347 2.49149,1.4103 3.73723,2.11546 0.73296,0.31228 1.5126,0.36862 2.29784,0.37083 0.93065,0.002 1.8669,0.0601 2.77082,-0.19534 0.14609,-0.0511 0.42176,-0.13049 0.5443,-0.23911 0.46245,-0.40991 0.678,-1.09638 0.91572,-1.64317 0.38632,-0.81327 0.54702,-1.67706 0.62915,-2.56493 0.11266,-0.84126 -0.0111,-1.65972 -0.25659,-2.4642 -0.25488,-0.72062 -0.74499,-1.29958 -1.32341,-1.78308 -1.65583,-1.17314 -3.36717,-2.42084 -5.38503,-2.77434 -0.35035,-0.0514 -0.17918,-0.0322 -0.51328,-0.0594 0,0 3.16219,2.35042 3.16219,2.35042 v 0 c 0.30996,0.043 0.15145,0.0184 0.47541,0.0745 0.2915,0.066 0.34799,0.0698 0.63956,0.17555 0.1089,0.0395 0.42058,0.19203 0.3216,0.13183 -5.35661,-3.25781 -3.4717,-2.07324 -2.32777,-1.34194 0.59811,0.40257 1.09634,0.91755 1.4224,1.56838 0.27124,0.75748 0.43314,1.51654 0.33088,2.32611 -0.0623,0.84715 -0.1989,1.67981 -0.55034,2.46168 -0.29308,0.66186 -0.52111,1.39054 -1.30507,1.56056 -0.88361,0.18926 -1.78642,0.15466 -2.68501,0.12161 -0.75888,-0.0528 -1.50904,-0.14627 -2.19645,-0.50035 0.96993,0.56849 1.94163,1.13397 2.9098,1.70547 0.14191,0.0838 -0.29095,-0.15533 -0.43097,-0.24224 -0.5157,-0.32011 -0.99528,-0.70442 -1.31655,-1.22683 -0.34968,-0.67311 -0.6007,-1.37367 -0.62918,-2.14027 0.0344,-0.78237 0.0793,-1.57153 0.35893,-2.31277 0.3448,-0.85428 0.76871,-1.6554 1.5737,-2.15832 0.64207,-0.38315 1.31549,-0.58343 2.07051,-0.53081 0.75098,-0.005 1.50235,-0.0103 2.25306,0.014 z" />
    <path
       style="fill:#00ffff;stroke-width:1.07831"
       d="m 560.14983,483.15001 c -4.46546,-0.46725 -9.07523,-1.12996 -10.24393,-1.47269 -1.16871,-0.34272 -4.17336,-1.15224 -6.677,-1.79891 -3.86225,-0.9976 -5.33295,-2.27132 -9.70479,-8.40491 -5.08261,-7.13079 -5.15168,-7.33934 -5.07828,-15.33261 0.0564,-6.14305 0.64973,-9.21426 2.45246,-12.69482 l 2.37804,-4.59134 4.39147,2.24036 c 2.41531,1.2322 4.60786,2.02397 4.87235,1.75949 0.26448,-0.26449 -0.37961,-2.28534 -1.43132,-4.49079 -1.85988,-3.9002 -1.85377,-4.05266 0.22336,-5.57254 1.17456,-0.85944 4.80437,-2.39042 8.06625,-3.40217 5.07373,-1.57374 10.94396,-1.83832 40.62489,-1.83098 19.0818,0.005 35.0493,0.3637 35.48335,0.79774 1.13492,1.13493 -5.59013,28.36297 -8.62097,34.90408 -2.67396,5.77091 -6.54649,9.31562 -14.59825,13.36248 -12.73376,6.40005 -25.0794,8.31253 -42.13763,6.52761 z"
       id="path50"
       transform="scale(0.26458333)" />
    <path
       style="fill:#00ffff;stroke-width:1.07831"
       d="m 622.37673,421.21669 c -2.94767,-2.22213 -4.21966,-2.30368 -40.80399,-2.61565 -29.69072,-0.25319 -38.84639,-0.004 -42.83749,1.16597 l -5.076,1.48799 -5.24735,-12.48822 c -9.57614,-22.79034 -32.63894,-66.30822 -44.59691,-84.15122 -4.55439,-6.79581 -12.20016,-19.1694 -16.99059,-27.49688 -7.0027,-12.17319 -9.43327,-15.50059 -12.40055,-16.97612 l -3.69068,-1.83525 8.72356,-0.0518 c 10.26956,-0.061 23.14695,-3.08953 30.76384,-7.23516 3.9572,-2.15377 6.59056,-4.77032 10.06213,-9.99792 5.19399,-7.82124 9.54971,-17.0347 10.63441,-22.49449 0.38817,-1.95383 1.99972,-5.76037 3.58121,-8.45899 l 2.87544,-4.90657 1.31874,3.13634 c 0.7253,1.72499 4.49706,8.68559 8.38168,15.468 3.88462,6.78242 9.57805,18.15453 12.65206,25.27137 3.07402,7.11684 7.94988,16.82162 10.83523,21.56618 3.08864,5.07883 8.62993,17.49559 13.47422,30.19265 9.22283,24.17341 27.41354,63.1594 36.51172,78.25124 3.30078,5.47525 6.00141,10.29508 6.00141,10.71073 0,0.41565 3.3688,2.24369 7.48622,4.06232 6.54076,2.88899 7.53018,3.0795 7.83435,1.50843 0.23091,-1.19265 1.00277,-0.42015 2.29222,2.29413 2.5297,5.32497 1.98014,6.43123 -1.78488,3.59291 z m -51.35598,-23.43343 c 3.29633,-0.70694 6.93394,-2.4239 8.94912,-4.22403 3.26052,-2.91255 3.40807,-3.41105 3.71702,-12.55736 0.41828,-12.38346 -0.92742,-14.6729 -11.76064,-20.00827 -7.05216,-3.4732 -18.31764,-6.08563 -18.15643,-4.21043 0.0976,1.13577 12.81145,9.8419 14.37242,9.8419 3.75151,0 2.62906,13.40664 -1.48948,17.79064 -2.34556,2.49673 -9.37486,4.85384 -14.47497,4.85384 -4.03362,0 -7.72208,-7.42589 -6.05862,-12.19769 1.78803,-5.12916 6.39167,-9.3234 11.05126,-10.0685 2.24918,-0.35966 4.07364,-0.95584 4.05436,-1.32485 -0.0193,-0.36899 -2.76941,-2.66373 -6.11139,-5.09942 -5.42479,-3.95364 -6.48161,-4.33709 -9.85585,-3.57608 -5.46529,1.23263 -8.98828,4.18442 -11.8826,9.95604 -3.05118,6.08441 -2.62725,9.97939 1.85547,17.04791 2.14128,3.37645 5.29056,6.14571 10.50037,9.23327 10.23246,6.06422 14.56655,6.84278 25.28996,4.54303 z m -40.9232,-85.22256 c 6.01991,-2.01555 10.75006,-6.27174 13.4757,-12.12544 3.60247,-7.73685 3.43411,-13.04472 -0.52898,-16.67694 -3.9889,-3.65588 -20.60355,-12.54201 -20.60355,-11.01954 0,0.63344 0.48524,1.15171 1.07831,1.15171 0.59307,0 1.07831,0.7154 1.07831,1.58977 0,0.87438 1.44868,2.33892 3.2193,3.25454 3.82259,1.97674 4.97483,5.57408 3.35175,10.46433 -2.70547,8.15146 -6.46484,12.00041 -13.99297,14.32641 -2.53445,0.78308 -2.56262,0.71075 -2.06419,-5.29966 0.62644,-7.55403 3.47802,-11.79871 8.24483,-12.27273 1.86884,-0.18585 3.38499,-0.67109 3.36921,-1.07831 -0.0158,-0.40723 -2.98809,-2.84535 -6.60515,-5.41806 -6.45933,-4.59433 -6.64586,-4.65123 -10.47317,-3.19454 -5.77559,2.1982 -8.7322,8.06716 -8.75467,17.37828 -0.01,4.04221 0.45644,8.23549 1.036,9.3184 1.0386,1.94065 11.45867,8.53359 15.66005,9.90835 3.47524,1.13716 8.5701,1.01229 12.50922,-0.30657 z"
       id="path51"
       transform="scale(0.26458333)" />
    <path
       style="fill:#00ffff;stroke-width:0.451232"
       d="m 326.47846,282.40729 c -3.8422,-5.09671 -4.8595,-6.15014 -10.61609,-10.99316 -2.72995,-2.29671 -5.86351,-5.01552 -6.96346,-6.0418 l -1.99991,-1.86596 1.54868,-1.62408 c 1.68612,-1.76822 8.22985,-6.79006 18.46987,-14.17428 3.59858,-2.59498 8.47188,-6.25161 10.82957,-8.12582 2.35769,-1.87423 7.77155,-5.78444 12.0308,-8.68937 l 7.74411,-5.28169 3.53669,2.19266 c 4.56058,2.82743 6.75599,3.93995 11.32047,5.73662 4.09563,1.61212 4.50241,1.37529 0.95453,-0.55571 -2.97884,-1.62129 -2.26193,-1.81538 1.40189,-0.37954 3.83724,1.5038 4.06713,1.43564 1.74734,-0.51807 -3.30563,-2.78399 -7.07193,-5.02259 -10.91989,-6.49052 -4.47328,-1.70648 -10.95628,-5.29596 -17.88884,-9.90464 -5.97581,-3.97264 -20.57617,-12.72176 -35.19609,-21.09092 -6.53931,-3.74343 -9.2067,-5.04217 -16.24435,-7.90934 -6.11756,-2.49231 -15.4633,-6.77335 -27.39907,-12.55079 l -6.41678,-3.10601 1.5012,-3.50603 c 1.6333,-3.81453 3.96841,-7.80259 7.70222,-13.15437 2.42321,-3.47326 5.67636,-9.64072 8.35842,-15.84626 0.80448,-1.86133 1.63209,-3.56584 1.83915,-3.7878 0.43941,-0.47105 1.44249,-0.10271 8.54884,3.13923 2.85405,1.30202 7.21972,3.07579 9.70149,3.94171 13.12855,4.5807 16.28996,6.22702 32.33837,16.8404 16.66516,11.02124 24.97449,15.01802 31.28534,15.04819 2.80566,0.0134 8.12485,0.85231 10.44467,1.64723 2.23713,0.7666 5.45313,2.44914 6.14723,3.21612 0.42675,0.47155 0.9095,1.83205 1.07279,3.02332 l 0.29687,2.16596 -1.11906,-0.73324 c -1.2149,-0.79604 -9.50985,-4.29285 -10.97649,-4.62724 -1.3173,-0.30034 -7.69197,3.5085 -10.51456,6.28242 -1.31581,1.29312 -3.34636,3.74603 -4.51232,5.45089 l -2.11993,3.09975 0.018,5.95208 c 0.0168,5.56135 0.0996,6.1189 1.26131,8.49338 1.92073,3.92584 4.68139,6.63858 10.14417,9.96807 2.70551,1.64897 5.81076,3.3899 6.90055,3.86873 2.47458,1.08726 7.81708,1.84241 13.03465,1.84241 3.61159,0 4.12332,-0.10897 5.34698,-1.13861 3.57116,-3.00494 5.42624,-11.30661 5.79546,-25.93531 0.21577,-8.54876 0.14615,-10.41443 -0.44069,-11.80932 -1.10526,-2.62713 -8.72806,-8.32149 -12.84814,-9.59775 -0.56115,-0.17383 -2.8765,-1.41293 -5.14523,-2.75357 -4.89024,-2.88972 -4.61643,-3.32272 1.59814,-2.52735 5.55685,0.71119 17.65775,0.71947 19.68364,0.0135 4.33059,-1.50918 7.27484,-4.56945 10.15205,-10.55211 3.367,-7.00109 4.04812,-9.39758 3.97563,-13.98819 -0.0353,-2.23359 -0.369,-5.17761 -0.74165,-6.54225 -0.37265,-1.36464 -0.62601,-2.53271 -0.56301,-2.5957 0.063,-0.063 2.39665,1.1218 5.18592,2.63287 7.66187,4.15076 7.71528,4.16255 17.78182,3.92329 7.39444,-0.17576 9.00464,-0.34298 11.05121,-1.14771 3.56779,-1.40289 5.28135,-2.93342 6.84871,-6.11717 1.16096,-2.35825 1.40181,-3.38619 1.40036,-5.97659 -9.6e-4,-1.72066 -0.18736,-4.09299 -0.41422,-5.27183 -0.22686,-1.17884 -0.30556,-2.14335 -0.1749,-2.14335 0.31853,0 3.20475,2.15742 4.60947,3.44555 1.22417,1.12255 2.03491,1.79835 14.30326,11.92247 4.51641,3.72704 9.05248,7.73168 10.08018,8.89921 2.49256,2.83169 6.07222,8.68264 9.48237,15.4989 1.53614,3.07048 4.06685,7.91781 5.6238,10.77185 3.24217,5.94323 6.58103,14.06034 7.89205,19.18637 1.14194,4.46496 1.14174,4.86641 -0.002,4.50331 -1.15701,-0.36723 -1.13717,-0.0177 0.0974,1.71607 2.77287,3.89414 0.73544,17.1168 -3.85956,25.04805 -1.10519,1.90763 -2.7486,5.39743 -3.65202,7.75512 -0.90342,2.35769 -2.0651,5.36294 -2.58151,6.67834 -0.51642,1.3154 -0.82461,2.50596 -0.68489,2.64569 0.87925,0.87924 -6.92198,13.98502 -10.85023,18.22799 -3.39703,3.66921 -8.61111,6.23659 -16.87185,8.3076 -10.20782,2.55916 -13.63434,3.07244 -18.90379,2.83175 -6.46565,-0.29533 -20.0775,-2.91088 -33.39116,-6.41619 -7.51059,-1.97744 -9.10899,-2.59892 -11.83988,-4.60358 -1.26493,-0.92854 -6.20908,-3.20772 -11.9648,-5.51558 -7.23123,-2.8995 -9.80946,-4.12918 -9.81058,-4.67915 -9.5e-4,-0.46504 -2.28625,-2.19725 -6.0676,-4.59912 -3.33634,-2.11922 -6.2228,-3.85311 -6.41435,-3.85311 -0.97451,0 -7.82032,6.9494 -11.12403,11.29233 -1.22231,1.60681 -6.05769,7.428 -10.74528,12.93596 -6.01297,7.0653 -9.4253,11.51693 -11.58716,15.11628 -1.68536,2.80598 -3.42753,5.58065 -3.8715,6.16594 l -0.80722,1.06417 z m 12.2786,-85.66471 c 2.55942,-0.9576 6.0078,-4.08631 7.26485,-6.59137 1.02654,-2.04572 2.55478,-8.19377 2.55478,-10.27779 0,-2.71688 -1.53977,-5.36789 -4.9536,-8.52856 -2.99947,-2.77705 -7.9851,-5.62877 -13.95393,-7.98146 -2.80889,-1.10716 -8.22862,-1.23927 -9.97132,-0.24305 -0.62044,0.35468 -2.06031,0.65207 -3.19972,0.66086 -4.69433,0.0362 -8.72242,2.13271 -10.55183,5.49184 -0.96467,1.77132 -1.1391,2.67911 -1.1391,5.92826 0,3.78346 0.0271,3.87644 1.9566,6.70741 1.41924,2.08236 2.87535,3.49366 5.30197,5.13883 1.83996,1.24744 4.86829,3.55084 6.72962,5.11867 4.22635,3.55992 5.56915,4.27539 7.38733,3.93616 0.82907,-0.15469 2.62217,0.0939 4.3447,0.60242 3.8041,1.12297 5.31076,1.12988 8.22965,0.0378 z"
       id="path52"
       transform="scale(0.26458333)" />
    <path
       style="fill:#00ffff;stroke-width:0.451232"
       d="m 374.61164,159.91418 -3.52074,-1.1333 0.29237,-2.11697 c 0.53363,-3.86382 1.60667,-7.51102 2.70514,-9.19453 2.64108,-4.04773 13.44814,-15.7107 15.62433,-16.86176 0.66111,-0.34969 2.33541,-0.769 3.72066,-0.93181 l 2.51863,-0.29602 0.86304,1.97963 c 1.50306,3.44768 1.96916,8.08216 1.16494,11.58319 -0.86455,3.7637 -4.56238,11.42606 -6.72424,13.93347 -3.69901,4.29025 -9.47744,5.34501 -16.64413,3.0381 z"
       id="path53"
       transform="scale(0.26458333)" />
    <path
       style="fill:#00ffff;stroke-width:0.451232"
       d="m 413.5062,133.00108 c -0.75916,-0.75916 -2.01738,-3.59353 -2.41736,-5.44553 -0.16405,-0.75959 -0.81166,-1.57678 -1.60918,-2.03054 -1.17986,-0.6713 -1.33498,-1.00454 -1.3375,-2.87335 -0.004,-2.8058 0.41609,-3.78384 3.29631,-7.67822 3.30259,-4.46547 7.79365,-8.59957 10.0893,-9.28736 2.23431,-0.66941 6.73895,-0.64319 10.04995,0.0585 2.43798,0.51668 2.46884,0.54421 4.17508,3.72438 3.34192,6.22885 4.47423,14.17175 2.57853,18.08775 -1.09737,2.26686 -3.35339,4.27133 -5.73016,5.09124 -1.01251,0.34928 -4.98851,0.66336 -10.05586,0.79435 -6.94929,0.17963 -8.49362,0.10425 -9.03911,-0.44124 z"
       id="path54"
       transform="scale(0.26458333)" />
    <path
       style="fill:#00ffff;stroke-width:0.552866"
       d="m 370.00238,214.13252 c -2.93089,-0.3395 -3.86718,-2.3454 -3.94502,-8.45179 -0.0536,-4.20257 0.10424,-4.99351 1.45479,-7.29093 2.14459,-3.64815 5.8123,-7.12956 9.68656,-9.19452 1.83032,-0.97554 3.47961,-1.77372 3.66511,-1.77372 0.77244,0 0.27135,11.3581 -0.72868,16.51687 -1.84094,9.49674 -3.31866,10.98341 -10.13276,10.19409 z"
       id="path55"
       transform="scale(0.26458333)" />
    <path
       style="fill:#00ffff;stroke-width:0.552866"
       d="m 322.86713,188.08808 c -3.55632,-0.35042 -5.48373,-6.96862 -3.27394,-11.24187 1.16126,-2.24563 4.64205,-3.7716 8.63834,-3.78702 1.7305,-0.007 3.30012,-0.26093 3.48804,-0.56501 0.18793,-0.30408 0.94899,-0.55287 1.69123,-0.55287 1.16577,0 1.34954,0.25556 1.34954,1.8768 0,1.03223 -0.52531,3.58233 -1.16735,5.66687 -1.78196,5.78553 -5.88894,9.0797 -10.72586,8.6031 z"
       id="path56"
       transform="scale(0.26458333)" />
  </g>
</svg>
